<svg width="58.000000" height="58.000000" viewBox="0 0 58 58" fill="none" xmlns="http://www.w3.org/2000/svg" xmlns:xlink="http://www.w3.org/1999/xlink">
	<desc>
			Created with Pixso.
	</desc>
	<defs/>
	<path id="path" d="M56.3 24.92L46.44 24.92L46.44 5.09C46.44 2.28 44.15 0 41.34 0L5.09 0C2.28 0 0 2.28 0 5.09L0 43.61C0 46.42 2.28 48.71 5.09 48.71L37.38 48.71L37.38 52.9C37.38 53.55 37.75 54.14 38.34 54.43L45.36 57.83C45.59 57.94 45.85 58 46.1 58C46.41 58 46.73 57.91 47 57.74C47.5 57.42 47.8 56.88 47.8 56.3L47.8 45.39L57.56 34.55C57.84 34.24 58 33.83 58 33.41L58 26.62C58 25.68 57.23 24.92 56.3 24.92ZM54.6 31.71L30.58 31.71L30.58 28.32L54.6 28.32L54.6 31.71ZM45.34 43.04L39.83 43.04L32.7 35.11L52.48 35.11L45.34 43.04ZM43.04 5.09L43.04 11.32L26.05 11.32L26.05 3.39L41.34 3.39C42.28 3.39 43.04 4.16 43.04 5.09ZM3.39 5.09C3.39 4.16 4.16 3.39 5.09 3.39L22.65 3.39L22.65 11.32L3.39 11.32L3.39 5.09ZM3.39 43.61L3.39 14.72L43.04 14.72L43.04 24.92L28.88 24.92C27.94 24.92 27.18 25.68 27.18 26.62L27.18 33.41C27.18 33.83 27.34 34.24 27.62 34.55L37.3 45.31L5.09 45.31C4.16 45.31 3.39 44.55 3.39 43.61ZM44.4 53.59L40.78 51.83L40.78 46.44L44.4 46.44L44.4 53.59Z" fill="#044382" fill-opacity="1.000000" fill-rule="nonzero"/>
</svg>
