<svg width="43.735352" height="43.735596" viewBox="0 0 43.7354 43.7356" fill="none" xmlns="http://www.w3.org/2000/svg" xmlns:xlink="http://www.w3.org/1999/xlink">
	<desc>
			Created with Pixso.
	</desc>
	<defs/>
	<rect id="vuesax/linear/profile-2user" rx="21.867769" width="43.735538" height="43.735538" fill="#00AC4F" fill-opacity="0"/>
	<path id="Vector" d="M16.09 19.8C11.75 19.66 8.31 16.1 8.31 11.73C8.31 7.27 11.91 3.64 16.4 3.64C20.86 3.64 24.49 7.27 24.49 11.73C24.47 16.1 21.02 19.66 16.69 19.8C16.51 19.79 16.29 19.79 16.09 19.8Z" stroke="#FFFFFF" stroke-opacity="1.000000" stroke-width="2.625000" stroke-linejoin="round"/>
	<path id="Vector" d="M29.9 7.28C33.43 7.28 36.28 10.14 36.28 13.66C36.28 17.11 33.54 19.91 30.14 20.04C29.99 20.02 29.83 20.02 29.66 20.04" stroke="#FFFFFF" stroke-opacity="1.000000" stroke-width="2.625000" stroke-linejoin="round" stroke-linecap="round"/>
	<path id="Vector" d="M7.58 37.22C12.59 40.58 20.81 40.58 25.82 37.22C30.23 34.27 30.23 29.46 25.82 26.53C20.82 23.19 12.61 23.19 7.58 26.53C3.17 29.48 3.17 34.29 7.58 37.22Z" stroke="#FFFFFF" stroke-opacity="1.000000" stroke-width="2.625000" stroke-linejoin="round"/>
	<path id="Vector" d="M33.42 36.44C34.73 36.17 35.97 35.64 36.99 34.86C39.83 32.72 39.83 29.21 36.99 27.08C35.99 26.31 34.76 25.8 33.47 25.51" stroke="#FFFFFF" stroke-opacity="1.000000" stroke-width="2.625000" stroke-linejoin="round" stroke-linecap="round"/>
	<g opacity="0.000000"/>
</svg>
