<svg width="41.000000" height="41.000000" viewBox="0 0 41 41" fill="none" xmlns="http://www.w3.org/2000/svg" xmlns:xlink="http://www.w3.org/1999/xlink">
	<desc>
			Created with Pixso.
	</desc>
	<defs>
		<clipPath id="clip40_647">
			<rect id="Сохранить" width="41.000000" height="41.000000" fill="white" fill-opacity="0"/>
		</clipPath>
	</defs>
	<g clip-path="url(#clip40_647)">
		<path id="path" d="M5.12 7.68C5.12 6.27 6.27 5.12 7.68 5.12L29.28 5.12L35.87 11.28L35.87 33.31C35.87 34.72 34.72 35.87 33.31 35.87L7.68 35.87C6.27 35.87 5.12 34.72 5.12 33.31L5.12 7.68Z" fill="#000000" fill-opacity="0" fill-rule="nonzero"/>
		<path id="path" d="M7.68 5.12L29.28 5.12L35.87 11.28L35.87 33.31C35.87 34.72 34.72 35.87 33.31 35.87L7.68 35.87C6.27 35.87 5.12 34.72 5.12 33.31L5.12 7.68C5.12 6.27 6.27 5.12 7.68 5.12Z" stroke="#FFFFFF" stroke-opacity="1.000000" stroke-width="1.500000" stroke-linejoin="round"/>
		<path id="path" d="" fill="#000000" fill-opacity="0" fill-rule="nonzero"/>
		<path id="path" d="M20.5 5.12L20.5 11.43C20.5 11.72 20.11 11.95 19.64 11.95L12.81 11.95C12.34 11.95 11.95 11.72 11.95 11.43L11.95 5.12L20.5 5.12Z" fill="#000000" fill-opacity="0" fill-rule="nonzero"/>
		<path id="path" d="M20.5 11.43C20.5 11.72 20.11 11.95 19.64 11.95L12.81 11.95C12.34 11.95 11.95 11.72 11.95 11.43L11.95 5.12L20.5 5.12L20.5 11.43Z" stroke="#FFFFFF" stroke-opacity="1.000000" stroke-width="1.500000" stroke-linejoin="round"/>
		<path id="path" d="M7.7 5.85L7.68 5.87C7.26 5.87 6.93 5.54 6.93 5.12C6.93 4.7 7.26 4.37 7.68 4.37L7.7 4.39L7.7 5.85ZM29.26 4.39L29.28 4.37C29.7 4.37 30.03 4.7 30.03 5.12C30.03 5.54 29.7 5.87 29.28 5.87L29.26 5.85L29.26 4.39Z" fill="#000000" fill-opacity="0" fill-rule="nonzero"/>
		<path id="path" d="M7.68 5.12L29.28 5.12" stroke="#FFFFFF" stroke-opacity="1.000000" stroke-width="1.500000" stroke-linejoin="round" stroke-linecap="round"/>
		<path id="path" d="M11.97 22.93L11.95 22.95C11.53 22.95 11.2 22.62 11.2 22.2C11.2 21.78 11.53 21.45 11.95 21.45L11.97 21.47L11.97 22.93ZM29.02 21.47L29.04 21.45C29.46 21.45 29.79 21.78 29.79 22.2C29.79 22.62 29.46 22.95 29.04 22.95L29.02 22.93L29.02 21.47Z" fill="#000000" fill-opacity="0" fill-rule="nonzero"/>
		<path id="path" d="M11.95 22.2L29.04 22.2" stroke="#FFFFFF" stroke-opacity="1.000000" stroke-width="1.500000" stroke-linejoin="round" stroke-linecap="round"/>
		<path id="path" d="M11.97 29.77L11.95 29.79C11.53 29.79 11.2 29.46 11.2 29.04C11.2 28.62 11.53 28.29 11.95 28.29L11.97 28.31L11.97 29.77ZM20.48 28.31L20.5 28.29C20.92 28.29 21.25 28.62 21.25 29.04C21.25 29.46 20.92 29.79 20.5 29.79L20.48 29.77L20.48 28.31Z" fill="#000000" fill-opacity="0" fill-rule="nonzero"/>
		<path id="path" d="M11.95 29.04L20.5 29.04" stroke="#FFFFFF" stroke-opacity="1.000000" stroke-width="1.500000" stroke-linejoin="round" stroke-linecap="round"/>
	</g>
</svg>
