<svg width="34.000000" height="34.000000" viewBox="0 0 34 34" fill="none" xmlns="http://www.w3.org/2000/svg" xmlns:xlink="http://www.w3.org/1999/xlink">
	<desc>
			Created with Pixso.
	</desc>
	<defs>
		<clipPath id="clip65_232">
			<rect id="7503212_notification_bell_alert_icon" width="34.000000" height="34.000000" fill="white" fill-opacity="0"/>
		</clipPath>
	</defs>
	<g clip-path="url(#clip65_232)">
		<path id="path" d="M31.23 26.77C31.12 26.57 30.95 26.4 30.75 26.28L29.31 25.42C28.75 25.08 28.29 24.6 27.96 24.03C27.64 23.46 27.47 22.82 27.47 22.16L27.47 14.38C27.47 12.13 26.74 9.93 25.39 8.12C24.03 6.32 22.13 5 19.96 4.36C19.87 4.34 19.79 4.28 19.73 4.2C19.67 4.13 19.64 4.03 19.64 3.93C19.64 3.24 19.36 2.58 18.87 2.09C18.38 1.6 17.72 1.32 17.02 1.32C16.33 1.32 15.67 1.6 15.18 2.09C14.69 2.58 14.41 3.24 14.41 3.93C14.41 4.03 14.38 4.13 14.32 4.2C14.26 4.28 14.18 4.34 14.09 4.36C11.92 5 10.02 6.32 8.66 8.12C7.31 9.93 6.58 12.13 6.58 14.38L6.58 22.16C6.58 22.82 6.41 23.46 6.09 24.03C5.76 24.6 5.3 25.08 4.74 25.42L3.3 26.28C3.05 26.43 2.86 26.65 2.75 26.92C2.64 27.19 2.62 27.48 2.7 27.76C2.77 28.04 2.94 28.29 3.16 28.47C3.39 28.65 3.67 28.74 3.96 28.75L30.08 28.75C30.31 28.74 30.54 28.68 30.73 28.56C30.93 28.44 31.09 28.28 31.21 28.08C31.32 27.88 31.39 27.66 31.39 27.43C31.39 27.2 31.34 26.98 31.23 26.77Z" fill="#044382" fill-opacity="1.000000" fill-rule="nonzero"/>
		<path id="path" d="M14.77 31.94C15.26 32.29 15.83 32.52 16.42 32.62C17.02 32.71 17.63 32.66 18.21 32.48C18.78 32.29 19.31 31.98 19.74 31.56C20.17 31.14 20.5 30.62 20.71 30.05L13.34 30.05C13.61 30.82 14.11 31.48 14.77 31.94Z" fill="#044382" fill-opacity="1.000000" fill-rule="nonzero"/>
	</g>
</svg>
