<svg width="32.669922" height="32.595703" viewBox="0 0 32.6699 32.5957" fill="none" xmlns="http://www.w3.org/2000/svg" xmlns:xlink="http://www.w3.org/1999/xlink">
	<desc>
			Created with Pixso.
	</desc>
	<defs/>
	<path id="Fill-133" d="M29.27 32.59L3.25 32.59C1.47 32.59 0 31.11 0 29.34L0 5.46C0 3.69 1.18 2.21 2.73 2.21L4.36 2.21L4.36 4.36L2.73 4.36C2.51 4.36 2.21 4.8 2.21 5.46L2.21 29.34C2.21 29.93 2.73 30.45 3.32 30.45L29.34 30.45C29.93 30.45 30.45 29.93 30.45 29.34L30.45 5.46C30.45 4.8 30.08 4.36 29.93 4.36L28.3 4.36L28.3 2.21L29.93 2.21C31.41 2.21 32.66 3.69 32.66 5.46L32.66 29.34C32.52 31.11 31.04 32.59 29.27 32.59Z" fill="#FFFFFF" fill-opacity="1.000000" fill-rule="nonzero"/>
	<path id="Fill-134" d="M7.61 6.57C7.02 6.57 6.5 6.06 6.5 5.46L6.5 1.1C6.5 0.51 7.02 0 7.61 0C8.2 0 8.72 0.51 8.72 1.1L8.72 5.46C8.64 6.06 8.2 6.57 7.61 6.57Z" fill="#FFFFFF" fill-opacity="1.000000" fill-rule="nonzero"/>
	<path id="Fill-135" d="M24.9 6.57C24.31 6.57 23.8 6.06 23.8 5.46L23.8 1.1C23.8 0.51 24.31 0 24.9 0C25.5 0 26.01 0.51 26.01 1.1L26.01 5.46C26.01 6.06 25.5 6.57 24.9 6.57Z" fill="#FFFFFF" fill-opacity="1.000000" fill-rule="nonzero"/>
	<path id="Fill-136" d="M10.86 2.21L21.65 2.21L21.65 4.43L10.86 4.43L10.86 2.21Z" fill="#FFFFFF" fill-opacity="1.000000" fill-rule="nonzero"/>
	<path id="Fill-137" d="M2.14 8.72L30.37 8.72L30.37 10.93L2.14 10.93L2.14 8.72Z" fill="#FFFFFF" fill-opacity="1.000000" fill-rule="nonzero"/>
	<path id="Fill-138" d="M26.01 13.08L28.16 13.08L28.16 15.22L26.01 15.22L26.01 13.08Z" fill="#FFFFFF" fill-opacity="1.000000" fill-rule="nonzero"/>
	<path id="Fill-139" d="M21.65 13.08L23.87 13.08L23.87 15.22L21.65 15.22L21.65 13.08Z" fill="#FFFFFF" fill-opacity="1.000000" fill-rule="nonzero"/>
	<path id="Fill-140" d="M17.36 13.08L19.51 13.08L19.51 15.22L17.36 15.22L17.36 13.08Z" fill="#FFFFFF" fill-opacity="1.000000" fill-rule="nonzero"/>
	<path id="Fill-141" d="M13 13.08L15.15 13.08L15.15 15.22L13 15.22L13 13.08Z" fill="#FFFFFF" fill-opacity="1.000000" fill-rule="nonzero"/>
	<path id="Fill-142" d="M8.64 13.08L10.86 13.08L10.86 15.22L8.64 15.22L8.64 13.08Z" fill="#FFFFFF" fill-opacity="1.000000" fill-rule="nonzero"/>
	<path id="Fill-143" d="M26.01 17.44L28.16 17.44L28.16 19.58L26.01 19.58L26.01 17.44Z" fill="#FFFFFF" fill-opacity="1.000000" fill-rule="nonzero"/>
	<path id="Fill-144" d="M21.65 17.44L23.87 17.44L23.87 19.58L21.65 19.58L21.65 17.44Z" fill="#FFFFFF" fill-opacity="1.000000" fill-rule="nonzero"/>
	<path id="Fill-145" d="M17.36 17.44L19.51 17.44L19.51 19.58L17.36 19.58L17.36 17.44Z" fill="#FFFFFF" fill-opacity="1.000000" fill-rule="nonzero"/>
	<path id="Fill-146" d="M13 17.44L15.15 17.44L15.15 19.58L13 19.58L13 17.44Z" fill="#FFFFFF" fill-opacity="1.000000" fill-rule="nonzero"/>
	<path id="Fill-147" d="M8.64 17.44L10.86 17.44L10.86 19.58L8.64 19.58L8.64 17.44Z" fill="#FFFFFF" fill-opacity="1.000000" fill-rule="nonzero"/>
	<path id="Fill-148" d="M4.36 17.44L6.5 17.44L6.5 19.58L4.36 19.58L4.36 17.44Z" fill="#FFFFFF" fill-opacity="1.000000" fill-rule="nonzero"/>
	<path id="Fill-149" d="M26.01 21.73L28.16 21.73L28.16 23.94L26.01 23.94L26.01 21.73Z" fill="#FFFFFF" fill-opacity="1.000000" fill-rule="nonzero"/>
	<path id="Fill-150" d="M21.65 21.73L23.87 21.73L23.87 23.94L21.65 23.94L21.65 21.73Z" fill="#FFFFFF" fill-opacity="1.000000" fill-rule="nonzero"/>
	<path id="Fill-151" d="M17.36 21.73L19.51 21.73L19.51 23.94L17.36 23.94L17.36 21.73Z" fill="#FFFFFF" fill-opacity="1.000000" fill-rule="nonzero"/>
	<path id="Fill-152" d="M13 21.73L15.15 21.73L15.15 23.94L13 23.94L13 21.73Z" fill="#FFFFFF" fill-opacity="1.000000" fill-rule="nonzero"/>
	<path id="Fill-153" d="M8.64 21.73L10.86 21.73L10.86 23.94L8.64 23.94L8.64 21.73Z" fill="#FFFFFF" fill-opacity="1.000000" fill-rule="nonzero"/>
	<path id="Fill-154" d="M4.36 21.73L6.5 21.73L6.5 23.94L4.36 23.94L4.36 21.73Z" fill="#FFFFFF" fill-opacity="1.000000" fill-rule="nonzero"/>
	<path id="Fill-155" d="M21.65 26.09L23.87 26.09L23.87 28.23L21.65 28.23L21.65 26.09Z" fill="#FFFFFF" fill-opacity="1.000000" fill-rule="nonzero"/>
	<path id="Fill-156" d="M17.36 26.09L19.51 26.09L19.51 28.23L17.36 28.23L17.36 26.09Z" fill="#FFFFFF" fill-opacity="1.000000" fill-rule="nonzero"/>
	<path id="Fill-157" d="M13 26.09L15.15 26.09L15.15 28.23L13 28.23L13 26.09Z" fill="#FFFFFF" fill-opacity="1.000000" fill-rule="nonzero"/>
	<path id="Fill-158" d="M8.64 26.09L10.86 26.09L10.86 28.23L8.64 28.23L8.64 26.09Z" fill="#FFFFFF" fill-opacity="1.000000" fill-rule="nonzero"/>
	<path id="Fill-159" d="M4.36 26.09L6.5 26.09L6.5 28.23L4.36 28.23L4.36 26.09Z" fill="#FFFFFF" fill-opacity="1.000000" fill-rule="nonzero"/>
</svg>
