<svg width="54.000000" height="54.000000" viewBox="0 0 54 54" fill="none" xmlns="http://www.w3.org/2000/svg" xmlns:xlink="http://www.w3.org/1999/xlink">
	<desc>
			Created with Pixso.
	</desc>
	<defs>
		<clipPath id="clip72_59">
			<rect id="4230535_calendar_event_star_icon" width="54.000000" height="54.000000" fill="white" fill-opacity="0"/>
		</clipPath>
	</defs>
	<g clip-path="url(#clip72_59)">
		<path id="path" d="M20.48 35.85L19.65 40.68C19.53 41.47 19.84 42.25 20.48 42.71C20.84 42.98 21.26 43.11 21.7 43.11C22.04 43.11 22.35 43.03 22.67 42.88L27.02 40.6L31.36 42.88C32.06 43.26 32.9 43.2 33.56 42.73C34.21 42.27 34.53 41.49 34.38 40.71L33.56 35.88L37.06 32.46C37.63 31.91 37.84 31.09 37.58 30.33C37.33 29.57 36.7 29.02 35.92 28.91L31.07 28.22L28.89 23.83C28.54 23.11 27.82 22.67 27.04 22.67C26.24 22.67 25.52 23.11 25.18 23.83L23.01 28.22L18.16 28.91C17.38 29.02 16.72 29.57 16.49 30.33C16.24 31.09 16.45 31.91 17.02 32.46L20.48 35.85ZM23.81 30.18C24.15 30.14 24.44 29.91 24.59 29.61L26.97 24.72L29.38 29.61C29.53 29.93 29.82 30.14 30.16 30.18L35.54 30.94L31.66 34.74C31.4 34.97 31.3 35.33 31.36 35.66L32.31 41.02L27.48 38.49C27.18 38.32 26.81 38.32 26.51 38.49L21.72 41.02L22.65 35.64C22.71 35.31 22.59 34.95 22.35 34.72L18.43 30.94L23.81 30.18Z" fill="#044382" fill-opacity="1.000000" fill-rule="nonzero"/>
		<path id="path" d="M49.46 7.55L43.55 7.55L43.55 4.38C43.55 3.81 43.09 3.33 42.5 3.33C41.91 3.33 41.44 3.79 41.44 4.38L41.44 7.55L12.55 7.55L12.55 4.38C12.55 3.81 12.08 3.33 11.49 3.33C10.92 3.33 10.44 3.79 10.44 4.38L10.44 7.55L4.53 7.55C2.7 7.55 1.22 9.02 1.22 10.86L1.22 16.11L1.22 47.35C1.22 49.19 2.7 50.66 4.53 50.66L49.46 50.66C51.3 50.66 52.77 49.19 52.77 47.35L52.77 16.11L52.77 10.86C52.77 9.02 51.27 7.55 49.46 7.55ZM50.68 47.35C50.68 48.03 50.14 48.57 49.46 48.57L4.53 48.57C3.86 48.57 3.31 48.03 3.31 47.35L3.31 17.17L50.66 17.17L50.66 47.35L50.68 47.35ZM50.68 15.08L3.31 15.08L3.31 10.86C3.31 10.18 3.86 9.63 4.53 9.63L49.46 9.63C50.14 9.63 50.68 10.18 50.68 10.86L50.68 15.08Z" fill="#044382" fill-opacity="1.000000" fill-rule="nonzero"/>
	</g>
</svg>
