<svg width="512.000000" height="512.000000" viewBox="0 0 512 512" fill="none" xmlns="http://www.w3.org/2000/svg" xmlns:xlink="http://www.w3.org/1999/xlink">
	<desc>
			Created with Pixso.
	</desc>
	<defs>
		<filter id="filter_102_38_dd" x="-4.000000" y="0.000000" width="520.000000" height="519.998901" filterUnits="userSpaceOnUse" color-interpolation-filters="sRGB">
			<feFlood flood-opacity="0" result="BackgroundImageFix"/>
			<feColorMatrix in="SourceAlpha" type="matrix" values="0 0 0 0 0 0 0 0 0 0 0 0 0 0 0 0 0 0 127 0" result="hardAlpha"/>
			<feOffset dx="0" dy="4"/>
			<feGaussianBlur stdDeviation="1.33333"/>
			<feComposite in2="hardAlpha" operator="out" k2="-1" k3="1"/>
			<feColorMatrix type="matrix" values="0 0 0 0 0 0 0 0 0 0 0 0 0 0 0 0 0 0 0.25 0"/>
			<feBlend mode="normal" in2="BackgroundImageFix" result="effect_dropShadow_1"/>
			<feBlend mode="normal" in="SourceGraphic" in2="effect_dropShadow_1" result="shape"/>
		</filter>
		<clipPath id="clip102_37">
			<rect id="chess_ypvggyrc9o86" width="512.000000" height="512.000000" fill="white" fill-opacity="0"/>
		</clipPath>
	</defs>
	<g clip-path="url(#clip102_37)">
		<g filter="url(#filter_102_38_dd)">
			<path id="path" d="M499.7 439.24C494.93 423.7 483.59 411.2 469.25 404.62C471.57 401.12 472.92 396.93 472.92 392.43C472.92 380.23 463.02 370.31 450.85 370.31L449.97 370.31L437.21 287.09C446.58 284.54 453.49 275.93 453.49 265.74C453.49 253.54 443.59 243.62 431.43 243.62L405.1 243.62L405.1 237.68C423.17 225.49 434.24 204.89 434.24 182.91C434.24 146.53 404.73 116.94 368.46 116.94C360.16 116.94 352.06 118.47 344.39 121.49C340.54 123.01 338.65 127.37 340.17 131.22C341.69 135.08 346.05 136.96 349.9 135.45C355.8 133.12 362.05 131.94 368.46 131.94C396.46 131.94 419.24 154.8 419.24 182.91C419.24 201.04 409.5 217.95 393.83 227.05C391.52 228.39 390.1 230.86 390.1 233.54L390.1 243.62L373.99 243.62C369.85 243.62 366.49 246.98 366.49 251.12C366.49 255.26 369.85 258.62 373.99 258.62L431.43 258.62C435.33 258.62 438.5 261.82 438.5 265.74C438.5 269.67 435.33 272.86 431.43 272.86L336.28 272.86C336.09 271.29 335.74 269.77 335.25 268.32C346.74 267.57 355.86 257.96 355.86 246.25L355.86 226.76C355.86 215.05 346.74 205.44 335.25 204.69C336.02 202.44 336.43 200.03 336.43 197.53C336.43 187.33 329.52 178.73 320.14 176.18L329.92 112.45L333.74 112.45C345.94 112.45 355.86 102.53 355.86 90.33C355.86 78.13 345.94 68.21 333.74 68.21L288.03 68.21L288.03 31.86C288.03 14.29 273.78 0 256.25 0C238.73 0 224.47 14.29 224.47 31.86L224.47 68.21L178.77 68.21C166.57 68.21 156.65 78.13 156.65 90.33C156.65 102.53 166.57 112.45 178.77 112.45L182.59 112.45L192.36 176.18C182.99 178.73 176.07 187.33 176.07 197.53C176.07 200.03 176.49 202.44 177.26 204.69C165.77 205.44 156.65 215.06 156.65 226.76L156.65 246.25C156.65 257.96 165.77 267.57 177.26 268.32C176.76 269.77 176.41 271.29 176.23 272.86L80.56 272.86C76.66 272.86 73.49 269.67 73.49 265.74C73.49 261.82 76.66 258.62 80.56 258.62L138 258.62C142.14 258.62 145.5 255.27 145.5 251.12C145.5 246.98 142.14 243.62 138 243.62L121.89 243.62L121.89 233.54C121.89 230.86 120.47 228.39 118.16 227.05C102.49 217.95 92.75 201.04 92.75 182.91C92.75 154.8 115.53 131.94 143.53 131.94C149.23 131.94 154.82 132.88 160.15 134.73C164.06 136.09 168.33 134.02 169.69 130.1C171.05 126.19 168.98 121.92 165.07 120.56C158.16 118.16 150.91 116.94 143.53 116.94C107.26 116.94 77.75 146.53 77.75 182.91C77.75 204.89 88.81 225.49 106.89 237.68L106.89 243.62L80.56 243.62C68.39 243.62 58.49 253.55 58.49 265.74C58.49 275.93 65.41 284.54 74.78 287.09L62.02 370.31L61.14 370.31C48.97 370.31 39.07 380.23 39.07 392.43C39.07 396.93 40.42 401.12 42.73 404.62C28.39 411.2 17.06 423.7 12.28 439.24C5.18 441.37 0 447.98 0 455.77L0 465.52C0 475.02 7.72 482.76 17.21 482.76L117.72 482.76C117.63 483.49 117.58 484.24 117.58 485L117.58 494.75C117.58 504.26 125.3 511.99 134.79 511.99L377.72 511.99C387.21 511.99 394.93 504.26 394.93 494.75L394.93 485C394.93 484.24 394.88 483.49 394.79 482.76L494.78 482.76C504.27 482.76 512 475.02 512 465.51L512 455.77C512 447.98 506.81 441.37 499.7 439.24ZM239.47 31.86C239.47 22.56 247 15 256.25 15C265.51 15 273.03 22.56 273.03 31.86L273.03 68.21L239.47 68.21L239.47 31.86ZM178.77 97.45C174.84 97.45 171.65 94.25 171.65 90.33C171.65 86.4 174.84 83.21 178.77 83.21L333.74 83.21C337.67 83.21 340.86 86.4 340.86 90.33C340.86 94.25 337.67 97.45 333.74 97.45L178.77 97.45ZM314.74 112.45L305.09 175.41L207.42 175.41L197.77 112.45L314.74 112.45ZM171.65 246.25L171.65 226.76C171.65 222.84 174.82 219.64 178.72 219.64L269.45 219.64C273.59 219.64 276.95 216.29 276.95 212.14C276.95 208 273.59 204.64 269.45 204.64L198.14 204.64C194.24 204.64 191.07 201.45 191.07 197.53C191.07 193.6 194.24 190.41 198.14 190.41L200.93 190.41L314.36 190.41C318.26 190.41 321.43 193.6 321.43 197.53C321.43 201.45 318.26 204.64 314.36 204.64L298.59 204.64C294.44 204.64 291.09 208 291.09 212.14C291.09 216.29 294.44 219.64 298.59 219.64L333.79 219.64C337.69 219.64 340.86 222.84 340.86 226.76L340.86 246.25C340.86 250.18 337.69 253.37 333.79 253.37L178.72 253.37C174.82 253.37 171.65 250.18 171.65 246.25ZM194.78 399.55L210.41 297.6L302.1 297.6L317.73 399.55L194.78 399.55ZM333.74 414.55C337.67 414.55 340.86 417.74 340.86 421.66C340.86 425.59 337.67 428.78 333.74 428.78L178.77 428.78C174.84 428.78 171.65 425.59 171.65 421.66C171.65 417.74 174.84 414.55 178.77 414.55L333.74 414.55ZM308.67 282.6C308.59 282.6 308.5 282.6 308.42 282.6L204.08 282.6C204 282.6 203.92 282.6 203.84 282.6L198.14 282.6C194.24 282.6 191.07 279.41 191.07 275.49C191.07 271.56 194.24 268.37 198.14 268.37L314.36 268.37C318.26 268.37 321.43 271.56 321.43 275.49C321.43 279.41 318.26 282.6 314.36 282.6L308.67 282.6ZM17.21 467.76C15.99 467.76 15 466.75 15 465.52L15 455.77C15 454.53 15.99 453.53 17.21 453.53L56.98 453.53C61.12 453.53 64.48 450.17 64.48 446.03C64.48 441.88 61.12 438.53 56.98 438.53L28.58 438.53C35.18 424.23 49.72 414.55 65.88 414.55L146.42 414.55C150.56 414.55 153.92 411.19 153.92 407.05C153.92 402.9 150.56 399.55 146.42 399.55L61.14 399.55C57.24 399.55 54.07 396.35 54.07 392.43C54.07 388.5 57.24 385.31 61.14 385.31L163.58 385.31C167.72 385.31 171.08 381.95 171.08 377.81C171.08 373.67 167.72 370.31 163.58 370.31L77.2 370.31L89.84 287.86L179.86 287.86C183.32 292.98 188.86 296.58 195.26 297.42L179.6 399.55L178.76 399.55C166.57 399.55 156.65 409.47 156.65 421.66C156.65 426.16 157.99 430.34 160.3 433.83C157.4 435.16 154.62 436.73 151.99 438.53L84.9 438.53C80.76 438.53 77.4 441.88 77.4 446.03C77.4 450.17 80.76 453.53 84.9 453.53L137.03 453.53C134.09 457.86 131.73 462.64 130.09 467.76L17.21 467.76ZM379.93 485.01L379.93 494.75C379.93 495.99 378.94 497 377.72 497L134.79 497C133.57 497 132.58 495.99 132.58 494.75L132.58 485.01C132.58 483.77 133.57 482.76 134.79 482.76L182.03 482.76C186.17 482.76 189.53 479.4 189.53 475.26C189.53 471.12 186.17 467.76 182.03 467.76L146.15 467.76C152.74 453.45 167.23 443.78 183.46 443.78L329.04 443.78C345.43 443.78 359.81 453.32 366.38 467.76L211.17 467.76C207.03 467.76 203.67 471.12 203.67 475.26C203.67 479.4 207.03 482.76 211.17 482.76L377.72 482.76C378.94 482.76 379.93 483.77 379.93 485.01ZM496.99 455.77L496.99 465.52C496.99 466.75 496 467.76 494.78 467.76L382.42 467.76C380.79 462.62 378.47 457.85 375.57 453.53L427.09 453.53C431.23 453.53 434.59 450.17 434.59 446.03C434.59 441.88 431.23 438.53 427.09 438.53L360.73 438.53C358.06 436.7 355.22 435.1 352.25 433.76C354.53 430.28 355.86 426.12 355.86 421.66C355.86 409.47 345.93 399.55 333.74 399.55L332.9 399.55L317.24 297.42C323.64 296.58 329.19 292.98 332.65 287.86L422.15 287.86L434.79 370.31L348.41 370.31C344.27 370.31 340.91 373.67 340.91 377.81C340.91 381.95 344.27 385.31 348.41 385.31L450.85 385.31C454.75 385.31 457.92 388.5 457.92 392.43C457.92 396.35 454.75 399.55 450.85 399.55L365.57 399.55C361.43 399.55 358.07 402.9 358.07 407.05C358.07 411.19 361.43 414.55 365.57 414.55L446.11 414.55C462.27 414.55 476.81 424.23 483.41 438.53L455.01 438.53C450.87 438.53 447.51 441.88 447.51 446.03C447.51 450.17 450.87 453.53 455.01 453.53L494.78 453.53C496 453.53 497 454.53 496.99 455.77Z" fill="#044382" fill-opacity="1.000000" fill-rule="nonzero"/>
			<path id="path" d="M394.26 182.91C394.26 187.05 397.62 190.41 401.76 190.41C405.91 190.41 409.26 187.05 409.26 182.91C409.26 160.35 390.96 142 368.46 142C364.32 142 360.96 145.35 360.96 149.5C360.96 153.64 364.32 157 368.46 157C382.69 157 394.26 168.62 394.26 182.91Z" fill="#044382" fill-opacity="1.000000" fill-rule="nonzero"/>
			<path id="path" d="M102.73 182.91C102.73 187.05 106.09 190.41 110.23 190.41C114.37 190.41 117.73 187.05 117.73 182.91C117.73 168.62 129.3 157 143.53 157C147.67 157 151.03 153.64 151.03 149.5C151.03 145.35 147.67 142 143.53 142C121.03 142 102.73 160.35 102.73 182.91Z" fill="#044382" fill-opacity="1.000000" fill-rule="nonzero"/>
		</g>
	</g>
</svg>
