<svg width="9.679199" height="5.002441" viewBox="0 0 9.6792 5.00244" fill="none" xmlns="http://www.w3.org/2000/svg" xmlns:xlink="http://www.w3.org/1999/xlink">
	<desc>
			Created with Pixso.
	</desc>
	<defs/>
	<path id="Vector" d="M9.24 1.16C9.48 0.95 9.48 0.61 9.24 0.4C9 0.19 8.61 0.19 8.37 0.4L5.45 2.92C5.45 2.92 5.16 3.2 4.84 3.19C4.52 3.19 4.21 2.92 4.21 2.92L1.3 0.4C1.06 0.19 0.67 0.19 0.43 0.4C0.31 0.51 0.25 0.64 0.25 0.78C0.25 0.92 0.31 1.06 0.43 1.16L4.4 4.59C4.64 4.8 5.03 4.8 5.27 4.59L9.24 1.16Z" fill="#044382" fill-opacity="1.000000" fill-rule="evenodd"/>
	<path id="Vector" d="M9.24 1.16C9.48 0.95 9.48 0.61 9.24 0.4C9 0.19 8.61 0.19 8.37 0.4L5.45 2.92C5.45 2.92 5.16 3.2 4.84 3.19C4.52 3.19 4.21 2.92 4.21 2.92L1.3 0.4C1.06 0.19 0.67 0.19 0.43 0.4C0.31 0.51 0.25 0.64 0.25 0.78C0.25 0.92 0.31 1.06 0.43 1.16L4.4 4.59C4.64 4.8 5.03 4.8 5.27 4.59L9.24 1.16Z" fill="#000000" fill-opacity="0.200000" fill-rule="evenodd"/>
	<path id="Vector" d="M9.24 0.4C9 0.19 8.61 0.19 8.37 0.4L5.45 2.92C5.45 2.92 5.16 3.2 4.84 3.19C4.52 3.19 4.21 2.92 4.21 2.92L1.3 0.4C1.06 0.19 0.67 0.19 0.43 0.4C0.31 0.51 0.25 0.64 0.25 0.78C0.25 0.92 0.31 1.06 0.43 1.16L4.4 4.59C4.64 4.8 5.03 4.8 5.27 4.59L9.24 1.16C9.48 0.95 9.48 0.61 9.24 0.4Z" stroke="#044382" stroke-opacity="1.000000" stroke-width="0.500000"/>
	<path id="Vector" d="M9.24 0.4C9 0.19 8.61 0.19 8.37 0.4L5.45 2.92C5.45 2.92 5.16 3.2 4.84 3.19C4.52 3.19 4.21 2.92 4.21 2.92L1.3 0.4C1.06 0.19 0.67 0.19 0.43 0.4C0.31 0.51 0.25 0.64 0.25 0.78C0.25 0.92 0.31 1.06 0.43 1.16L4.4 4.59C4.64 4.8 5.03 4.8 5.27 4.59L9.24 1.16C9.48 0.95 9.48 0.61 9.24 0.4Z" stroke="#000000" stroke-opacity="0.200000" stroke-width="0.500000"/>
</svg>
