<svg width="54.000000" height="54.000000" viewBox="0 0 54 54" fill="none" xmlns="http://www.w3.org/2000/svg" xmlns:xlink="http://www.w3.org/1999/xlink">
	<desc>
			Created with Pixso.
	</desc>
	<defs>
		<clipPath id="clip65_209">
			<rect id="5761435_china_flag_icon" width="54.000000" height="54.000000" fill="white" fill-opacity="0"/>
		</clipPath>
	</defs>
	<g clip-path="url(#clip65_209)">
		<path id="path" d="M53.15 3.37L0.84 3.37C0.61 3.37 0.41 3.45 0.24 3.62C0.08 3.78 0 3.98 0 4.21L0 53.15C0 53.38 0.08 53.58 0.24 53.75C0.41 53.91 0.61 54 0.84 54L4.21 54C4.45 54 4.65 53.91 4.81 53.75C4.97 53.58 5.06 53.38 5.06 53.15L5.06 37.12L53.15 37.12C53.38 37.12 53.58 37.04 53.75 36.87C53.91 36.71 54 36.51 54 36.28L54 4.21C54 3.98 53.91 3.78 53.75 3.62C53.58 3.45 53.38 3.37 53.15 3.37ZM3.37 52.31L1.68 52.31L1.68 5.06L3.37 5.06L3.37 52.31ZM52.31 35.43L5.06 35.43L5.06 5.06L52.31 5.06L52.31 35.43Z" fill="#044382" fill-opacity="1.000000" fill-rule="nonzero"/>
		<path id="path" d="M11.77 18.69L9.96 24.23C9.83 24.62 9.93 24.93 10.26 25.17C10.41 25.28 10.58 25.33 10.76 25.33C10.94 25.33 11.11 25.28 11.26 25.17L15.97 21.73L20.67 25.17C21 25.41 21.33 25.41 21.66 25.17C21.99 24.93 22.09 24.62 21.97 24.23L20.16 18.69L24.89 15.27C25.22 15.03 25.32 14.72 25.19 14.33C25.07 13.94 24.8 13.74 24.39 13.74L18.56 13.76L16.77 8.2C16.64 7.82 16.37 7.62 15.97 7.62C15.56 7.62 15.29 7.82 15.17 8.2L13.37 13.76L7.54 13.76C7.13 13.76 6.87 13.95 6.74 14.34C6.61 14.73 6.72 15.04 7.05 15.28L11.77 18.69ZM13.99 15.44C14.4 15.44 14.66 15.25 14.79 14.86L15.97 11.21L17.14 14.86C17.27 15.25 17.54 15.44 17.95 15.44L21.78 15.44L18.68 17.69C18.34 17.93 18.24 18.24 18.37 18.63L19.56 22.27L16.45 20.01C16.12 19.77 15.78 19.77 15.45 20.01L12.36 22.27L13.55 18.62C13.68 18.24 13.57 17.92 13.24 17.68L10.15 15.44L13.99 15.44Z" fill="#044382" fill-opacity="1.000000" fill-rule="nonzero"/>
		<path id="path" d="M27.18 9.55L27.67 9.7L27.37 10.12C27.23 10.31 27.18 10.52 27.22 10.75C27.25 10.98 27.37 11.16 27.55 11.3C27.74 11.44 27.95 11.49 28.18 11.45C28.41 11.41 28.6 11.3 28.73 11.11L29.03 10.69L29.34 11.11C29.5 11.34 29.73 11.46 30.02 11.46C30.2 11.46 30.37 11.41 30.51 11.3C30.7 11.16 30.81 10.98 30.85 10.75C30.89 10.52 30.84 10.31 30.7 10.12L30.4 9.7L30.89 9.54C31.14 9.49 31.34 9.36 31.47 9.14C31.6 8.92 31.63 8.69 31.55 8.44C31.47 8.2 31.31 8.03 31.07 7.93C30.83 7.83 30.6 7.84 30.37 7.95L29.89 8.11L29.89 7.59C29.89 7.36 29.8 7.16 29.64 6.99C29.47 6.83 29.27 6.75 29.04 6.75C28.81 6.75 28.61 6.83 28.44 6.99C28.28 7.16 28.2 7.36 28.2 7.59L28.2 8.1L27.71 7.94C27.49 7.87 27.28 7.89 27.07 7.99C26.86 8.1 26.72 8.26 26.65 8.48C26.57 8.7 26.59 8.92 26.7 9.13C26.8 9.33 26.96 9.48 27.18 9.55Z" fill="#044382" fill-opacity="1.000000" fill-rule="nonzero"/>
		<path id="path" d="M32.24 15.03L32.73 15.18L32.43 15.6C32.29 15.79 32.24 16 32.28 16.23C32.31 16.46 32.43 16.65 32.62 16.78C32.81 16.92 33.01 16.97 33.25 16.93C33.48 16.9 33.66 16.78 33.8 16.6L34.1 16.17L34.4 16.6C34.57 16.83 34.8 16.94 35.08 16.94C35.26 16.94 35.43 16.89 35.58 16.78C35.76 16.64 35.88 16.46 35.91 16.23C35.95 16 35.9 15.79 35.76 15.6L35.46 15.18L35.95 15.02C36.2 14.98 36.39 14.84 36.52 14.62C36.65 14.4 36.68 14.17 36.6 13.93C36.52 13.69 36.36 13.52 36.13 13.42C35.89 13.32 35.66 13.32 35.43 13.43L34.95 13.59L34.95 13.07C34.95 12.84 34.86 12.64 34.7 12.48C34.54 12.31 34.34 12.23 34.1 12.23C33.87 12.23 33.67 12.31 33.51 12.48C33.34 12.64 33.26 12.84 33.26 13.07L33.26 13.59L32.77 13.43C32.55 13.36 32.34 13.38 32.13 13.48C31.92 13.59 31.78 13.75 31.71 13.97C31.64 14.19 31.65 14.41 31.76 14.61C31.86 14.82 32.02 14.96 32.24 15.03Z" fill="#044382" fill-opacity="1.000000" fill-rule="nonzero"/>
		<path id="path" d="M32.24 22.66L32.73 22.82L32.43 23.24C32.29 23.43 32.24 23.64 32.28 23.87C32.32 24.1 32.43 24.28 32.62 24.42C32.81 24.56 33.01 24.61 33.25 24.57C33.48 24.53 33.66 24.42 33.8 24.23L34.1 23.81L34.4 24.23C34.57 24.46 34.8 24.58 35.08 24.58C35.26 24.58 35.43 24.52 35.58 24.42C35.76 24.28 35.88 24.1 35.91 23.87C35.95 23.64 35.9 23.43 35.76 23.24L35.46 22.82L35.95 22.66C36.19 22.6 36.36 22.46 36.48 22.25C36.59 22.03 36.61 21.81 36.54 21.58C36.46 21.35 36.32 21.19 36.1 21.08C35.88 20.98 35.66 20.97 35.43 21.06L34.95 21.21L34.95 20.7C34.95 20.46 34.86 20.26 34.7 20.1C34.54 19.93 34.34 19.85 34.1 19.85C33.87 19.85 33.67 19.93 33.51 20.1C33.34 20.26 33.26 20.46 33.26 20.7L33.26 21.21L32.77 21.06C32.55 20.98 32.34 21 32.13 21.1C31.92 21.21 31.78 21.37 31.71 21.59C31.64 21.81 31.65 22.03 31.76 22.24C31.86 22.44 32.02 22.59 32.24 22.66Z" fill="#044382" fill-opacity="1.000000" fill-rule="nonzero"/>
		<path id="path" d="M27.18 27.68L27.67 27.84L27.37 28.26C27.23 28.45 27.18 28.66 27.22 28.89C27.25 29.12 27.37 29.3 27.55 29.44C27.74 29.58 27.95 29.63 28.18 29.59C28.41 29.55 28.6 29.44 28.73 29.25L29.03 28.83L29.34 29.25C29.5 29.49 29.73 29.6 30.02 29.6C30.2 29.6 30.37 29.55 30.51 29.44C30.7 29.3 30.81 29.12 30.85 28.89C30.89 28.66 30.84 28.45 30.7 28.26L30.4 27.84L30.89 27.68C31.13 27.62 31.31 27.49 31.43 27.27C31.56 27.06 31.58 26.83 31.5 26.6C31.43 26.36 31.28 26.19 31.05 26.09C30.82 25.99 30.6 25.98 30.37 26.08L29.89 26.24L29.89 25.73C29.89 25.5 29.8 25.3 29.64 25.13C29.47 24.97 29.27 24.89 29.04 24.89C28.81 24.89 28.61 24.97 28.44 25.13C28.28 25.3 28.2 25.5 28.2 25.73L28.2 26.24L27.71 26.08C27.49 26.01 27.28 26.03 27.07 26.13C26.86 26.24 26.72 26.4 26.65 26.62C26.57 26.84 26.59 27.06 26.7 27.27C26.8 27.47 26.96 27.61 27.18 27.68Z" fill="#044382" fill-opacity="1.000000" fill-rule="nonzero"/>
	</g>
</svg>
