<svg width="24.000000" height="24.000000" viewBox="0 0 24 24" fill="none" xmlns="http://www.w3.org/2000/svg" xmlns:xlink="http://www.w3.org/1999/xlink">
	<desc>
			Created with Pixso.
	</desc>
	<defs>
		<clipPath id="clip65_220">
			<rect id="9004801_clock_time_schedule_hour_icon" width="24.000000" height="24.000000" fill="white" fill-opacity="0"/>
		</clipPath>
	</defs>
	<g clip-path="url(#clip65_220)">
		<path id="path" d="M12 1C10.54 1 9.13 1.27 7.79 1.83C6.44 2.39 5.25 3.19 4.22 4.22C3.19 5.25 2.39 6.44 1.83 7.79C1.27 9.13 1 10.54 1 12C1 13.45 1.27 14.86 1.83 16.2C2.39 17.55 3.19 18.74 4.22 19.77C5.25 20.8 6.44 21.6 7.79 22.16C9.13 22.72 10.54 23 12 23C13.45 23 14.86 22.72 16.2 22.16C17.55 21.6 18.74 20.8 19.77 19.77C20.8 18.74 21.6 17.55 22.16 16.2C22.72 14.86 23 13.45 23 12C23 10.54 22.72 9.13 22.16 7.79C21.6 6.44 20.8 5.25 19.77 4.22C18.74 3.19 17.55 2.39 16.2 1.83C14.86 1.27 13.45 1 12 1ZM15.7 15.7C15.23 16.17 14.76 16.17 14.29 15.7L11.29 12.7C11.09 12.51 11 12.27 11 12L11 6C11 5.33 11.33 5 12 5C12.66 5 13 5.33 13 6L13 11.58L15.7 14.29C16.17 14.76 16.17 15.23 15.7 15.7Z" fill="#044382" fill-opacity="1.000000" fill-rule="nonzero"/>
	</g>
</svg>
