<svg width="73.000000" height="73.000000" viewBox="0 0 73 73" fill="none" xmlns="http://www.w3.org/2000/svg" xmlns:xlink="http://www.w3.org/1999/xlink">
	<desc>
			Created with Pixso.
	</desc>
	<defs>
		<clipPath id="clip72_153">
			<rect id="delete_h8iy72e26o2y" width="73.000000" height="73.000000" fill="white" fill-opacity="0"/>
		</clipPath>
	</defs>
	<g clip-path="url(#clip72_153)">
		<path id="path" d="M33.18 19.9L39.81 19.9L53.09 19.9L54.87 19.9L56.4 19.9C58.24 19.9 59.72 18.42 59.72 16.59C59.72 14.75 58.24 13.27 56.4 13.27L49.77 13.27L46.45 13.27L46.45 3.31C46.45 1.48 44.96 0 43.13 0L16.59 0C14.75 0 13.27 1.48 13.27 3.31L13.27 13.27L9.95 13.27L3.31 13.27C1.48 13.27 0 14.75 0 16.59C0 18.42 1.48 19.9 3.31 19.9L6.63 19.9L19.9 19.9L26.54 19.9L33.18 19.9ZM19.9 13.27L19.9 6.63L39.81 6.63L39.81 13.27L36.5 13.27L23.22 13.27L19.9 13.27Z" fill="#044382" fill-opacity="1.000000" fill-rule="nonzero"/>
		<path id="path" d="M6.63 60.83C6.63 62.66 8.12 64.15 9.95 64.15L17.69 64.15L17.69 26.54L6.63 26.54L6.63 60.83Z" fill="#044382" fill-opacity="1.000000" fill-rule="nonzero"/>
		<path id="path" d="M53.09 26.78L53.09 26.54L49.77 26.54L39.81 26.54L39.81 28.78C37.33 29.97 35.08 31.58 33.18 33.53L33.18 26.54L24.33 26.54L24.33 49.77L24.33 64.15L31.54 64.15C35.8 69.53 42.39 73 49.77 73C62.58 73 73 62.58 73 49.77C73 38.09 64.33 28.39 53.09 26.78ZM49.77 66.36C46.76 66.36 43.94 65.55 41.51 64.15C40.92 63.81 40.35 63.44 39.81 63.03C35.79 60 33.18 55.18 33.18 49.77C33.18 44.35 35.79 39.53 39.81 36.5C42.59 34.42 46.04 33.18 49.77 33.18C50.9 33.18 52.01 33.29 53.09 33.51C60.65 35.05 66.36 41.76 66.36 49.77C66.36 58.92 58.92 66.36 49.77 66.36Z" fill="#044382" fill-opacity="1.000000" fill-rule="nonzero"/>
		<path id="path" d="M56.81 42.73C55.8 41.72 54.31 41.5 53.09 42.06C52.73 42.22 52.4 42.44 52.11 42.73L49.77 45.08L47.42 42.73C46.13 41.43 44.03 41.43 42.73 42.73C41.43 44.02 41.43 46.13 42.73 47.42L45.08 49.77L42.73 52.11C41.43 53.41 41.43 55.51 42.73 56.81C43.38 57.45 44.23 57.78 45.08 57.78C45.92 57.78 46.77 57.45 47.42 56.81L49.77 54.46L52.11 56.81C52.4 57.1 52.73 57.32 53.09 57.48C53.52 57.68 53.99 57.78 54.46 57.78C55.31 57.78 56.16 57.45 56.81 56.81C58.1 55.51 58.1 53.41 56.81 52.11L54.46 49.77L56.81 47.42C58.1 46.13 58.1 44.02 56.81 42.73Z" fill="#044382" fill-opacity="1.000000" fill-rule="nonzero"/>
	</g>
</svg>
