<svg width="72.969971" height="72.793945" viewBox="0 0 72.97 72.7939" fill="none" xmlns="http://www.w3.org/2000/svg" xmlns:xlink="http://www.w3.org/1999/xlink">
	<desc>
			Created with Pixso.
	</desc>
	<defs/>
	<path id="path" d="M72.97 12.47C72.97 9.23 71.71 6.19 69.41 3.9L69.05 3.54C64.33 -1.19 56.64 -1.19 51.9 3.54L17.61 37.86C17.17 38.3 16.9 38.87 16.83 39.48L15.15 54.83C15.06 55.64 15.34 56.45 15.93 57.03C16.51 57.62 17.32 57.9 18.13 57.81L33.48 56.14C34.1 56.08 34.67 55.79 35.1 55.36L48.32 42.13C49.37 41.09 49.37 39.38 48.32 38.31C47.27 37.25 45.56 37.26 44.5 38.31L31.95 50.86L20.88 52.06L22.07 40.98L55.73 7.36C58.35 4.74 62.62 4.74 65.25 7.36L65.61 7.72C68.23 10.34 68.23 14.61 65.61 17.24L57.26 25.59C56.75 26.1 56.46 26.79 56.46 27.49L56.48 66.15C56.48 66.84 55.91 67.41 55.22 67.41L6.65 67.41C5.96 67.41 5.39 66.84 5.39 66.15L5.39 17.58C5.39 16.89 5.96 16.32 6.65 16.32L32.57 16.32C34.05 16.32 35.27 15.11 35.27 13.62C35.27 12.14 34.05 10.93 32.57 10.93L6.65 10.93C2.98 10.91 0 13.91 0 17.57L0 66.13C0 69.81 2.98 72.79 6.65 72.79L55.22 72.79C58.89 72.79 61.87 69.81 61.87 66.13L61.86 28.6L69.41 21.04C71.71 18.75 72.97 15.71 72.97 12.47Z" fill="#044382" fill-opacity="1.000000" fill-rule="nonzero"/>
</svg>
