<svg width="500.000000" height="500.000000" viewBox="0 0 500 500" fill="none" xmlns="http://www.w3.org/2000/svg" xmlns:xlink="http://www.w3.org/1999/xlink">
	<desc>
			Created with Pixso.
	</desc>
	<defs>
		<clipPath id="clip102_13">
			<rect id="game_jn91iitvfpln" width="500.000000" height="500.000000" fill="white" fill-opacity="0"/>
		</clipPath>
	</defs>
	<g clip-path="url(#clip102_13)">
		<path id="path" d="M460.93 78.12L391.89 78.12C369.52 57.3 343.06 46.88 312.5 46.87L281.25 46.87C281.25 38.24 278.19 30.87 272.09 24.77C265.99 18.67 258.62 15.62 250 15.62C241.37 15.62 234 18.67 227.9 24.77C221.8 30.87 218.75 38.24 218.75 46.87L187.5 46.87C156.93 46.88 130.47 57.3 108.1 78.12L39.06 78.12C32.59 78.12 27.06 80.41 22.48 84.98C17.91 89.56 15.62 95.09 15.62 101.56L15.62 367.18C15.62 373.66 17.91 379.18 22.48 383.76C27.06 388.33 32.59 390.62 39.06 390.62L195.31 390.62L195.31 421.87L164.06 421.87C157.59 421.87 152.06 424.16 147.48 428.74C142.91 433.31 140.62 438.84 140.62 445.31L140.62 476.56C140.62 481.77 143.22 484.37 148.43 484.37L351.56 484.37C356.77 484.37 359.37 481.77 359.37 476.56L359.37 445.31C359.37 438.84 357.08 433.31 352.51 428.74C347.93 424.16 342.41 421.87 335.93 421.87L304.68 421.87L304.68 390.62L460.93 390.62C467.41 390.62 472.93 388.33 477.51 383.76C482.08 379.18 484.37 373.66 484.37 367.18L484.37 101.56C484.37 95.09 482.08 89.56 477.51 84.98C472.93 80.41 467.41 78.12 460.93 78.12ZM134.05 241.89C136.26 242.08 138.45 242.18 140.62 242.18C164.36 242.24 183.23 232.69 197.25 213.53C201.97 206.74 208.46 203.27 216.73 203.12L283.26 203.12C291.52 203.28 298.01 206.75 302.72 213.53C310.02 223.49 319.31 231.01 330.58 236.06C341.86 241.12 353.64 243.06 365.94 241.89C374.76 240.89 383.1 238.34 390.98 234.25C398.85 230.16 405.73 224.8 411.62 218.15C417.5 211.51 422 204.04 425.12 195.73C428.23 187.42 429.75 178.83 429.68 169.96L429.68 164.06C429.68 147.74 426.4 132.12 419.83 117.18L445.31 117.18L445.31 304.68L54.68 304.68L54.68 117.18L80.16 117.18C73.59 132.12 70.31 147.75 70.31 164.06L70.31 169.96C70.24 178.83 71.76 187.42 74.87 195.73C77.99 204.04 82.49 211.51 88.37 218.15C94.26 224.8 101.14 230.16 109.01 234.25C116.89 238.34 125.23 240.89 134.05 241.89ZM250 31.25C254.31 31.25 257.99 32.77 261.04 35.82C264.1 38.87 265.62 42.56 265.62 46.87L234.37 46.87C234.37 42.56 235.9 38.87 238.95 35.82C242 32.77 245.68 31.25 250 31.25ZM187.5 62.5L312.5 62.5C325.96 62.51 338.91 65.1 351.34 70.26C363.78 75.42 374.76 82.76 384.28 92.28C393.8 101.8 401.14 112.77 406.3 125.21C411.45 137.64 414.04 150.59 414.06 164.06L414.06 169.96C414.14 176.88 412.98 183.6 410.57 190.09C408.17 196.59 404.68 202.44 400.11 207.64C395.53 212.85 390.18 217.06 384.05 220.28C377.91 223.5 371.41 225.51 364.53 226.32C354.95 227.24 345.78 225.74 337 221.8C328.22 217.86 320.99 212.01 315.31 204.25C307.48 193.21 296.8 187.62 283.26 187.5L216.73 187.5C203.2 187.63 192.52 193.22 184.7 204.25C179.03 212.03 171.8 217.89 163.02 221.83C154.24 225.77 145.06 227.26 135.48 226.32C128.6 225.52 122.09 223.5 115.95 220.28C109.82 217.06 104.46 212.85 99.89 207.65C95.31 202.44 91.82 196.59 89.42 190.1C87.01 183.6 85.85 176.88 85.93 169.96L85.93 164.06C85.95 150.59 88.54 137.64 93.7 125.21C98.85 112.77 106.19 101.8 115.71 92.28C125.23 82.76 136.21 75.42 148.65 70.26C161.08 65.1 174.03 62.51 187.5 62.5ZM39.06 93.75L93.97 93.75C92.06 96.28 90.25 98.87 88.5 101.56L46.87 101.56C41.66 101.56 39.06 104.16 39.06 109.37L39.06 312.5C39.06 317.7 41.66 320.31 46.87 320.31L453.12 320.31C458.33 320.31 460.93 317.7 460.93 312.5L460.93 109.37C460.93 104.16 458.33 101.56 453.12 101.56L411.45 101.56C409.75 98.87 407.93 96.28 405.98 93.75L460.93 93.75C466.14 93.75 468.75 96.35 468.75 101.56L468.75 328.12L31.25 328.12L31.25 101.56C31.25 96.35 33.85 93.75 39.06 93.75ZM335.93 437.5C341.14 437.5 343.75 440.1 343.75 445.31L343.75 468.75L156.25 468.75L156.25 445.31C156.25 440.1 158.85 437.5 164.06 437.5L335.93 437.5ZM289.06 421.87L210.93 421.87L210.93 390.62L289.06 390.62L289.06 421.87ZM460.93 375L39.06 375C33.85 375 31.25 372.39 31.25 367.18L31.25 343.75L468.75 343.75L468.75 367.18C468.75 372.39 466.14 375 460.93 375Z" fill="#044382" fill-opacity="1.000000" fill-rule="nonzero"/>
		<path id="path" d="M429.68 351.56L414.06 351.56C408.85 351.56 406.25 354.16 406.25 359.37C406.25 364.58 408.85 367.18 414.06 367.18L429.68 367.18C434.89 367.18 437.5 364.58 437.5 359.37C437.5 354.16 434.89 351.56 429.68 351.56Z" fill="#044382" fill-opacity="1.000000" fill-rule="nonzero"/>
		<path id="path" d="M109.37 171.87L132.81 171.87L132.81 195.31C132.81 200.52 135.41 203.12 140.62 203.12L164.06 203.12C169.27 203.12 171.87 200.52 171.87 195.31L171.87 171.87L195.31 171.87C200.52 171.87 203.12 169.27 203.12 164.06L203.12 140.62C203.12 135.41 200.52 132.81 195.31 132.81L171.87 132.81L171.87 109.37C171.87 104.16 169.27 101.56 164.06 101.56L140.62 101.56C135.41 101.56 132.81 104.16 132.81 109.37L132.81 132.81L109.37 132.81C104.16 132.81 101.56 135.41 101.56 140.62L101.56 164.06C101.56 169.27 104.16 171.87 109.37 171.87ZM156.25 156.25L148.43 156.25L148.43 148.43L156.25 148.43L156.25 156.25ZM156.25 187.5L148.43 187.5L148.43 171.87L156.25 171.87L156.25 187.5ZM187.5 156.25L171.87 156.25L171.87 148.43L187.5 148.43L187.5 156.25ZM148.43 117.18L156.25 117.18L156.25 132.81L148.43 132.81L148.43 117.18ZM117.18 148.43L132.81 148.43L132.81 156.25L117.18 156.25L117.18 148.43Z" fill="#044382" fill-opacity="1.000000" fill-rule="nonzero"/>
		<path id="path" d="M218.75 109.37L234.37 109.37C239.58 109.37 242.18 106.77 242.18 101.56C242.18 96.35 239.58 93.75 234.37 93.75L218.75 93.75C213.54 93.75 210.93 96.35 210.93 101.56C210.93 106.77 213.54 109.37 218.75 109.37Z" fill="#044382" fill-opacity="1.000000" fill-rule="nonzero"/>
		<path id="path" d="M265.62 109.37L281.25 109.37C286.45 109.37 289.06 106.77 289.06 101.56C289.06 96.35 286.45 93.75 281.25 93.75L265.62 93.75C260.41 93.75 257.81 96.35 257.81 101.56C257.81 106.77 260.41 109.37 265.62 109.37Z" fill="#044382" fill-opacity="1.000000" fill-rule="nonzero"/>
		<circle id="circle" cx="382.812500" cy="156.250000" r="15.625000" fill="#044382" fill-opacity="1.000000"/>
		<circle id="circle" cx="351.562500" cy="187.500000" r="15.625000" fill="#044382" fill-opacity="1.000000"/>
		<circle id="circle" cx="351.562500" cy="125.000000" r="15.625000" fill="#044382" fill-opacity="1.000000"/>
		<circle id="circle" cx="320.312500" cy="156.250000" r="15.625000" fill="#044382" fill-opacity="1.000000"/>
	</g>
</svg>
