<svg width="475.851074" height="475.851013" viewBox="0 0 475.851 475.851" fill="none" xmlns="http://www.w3.org/2000/svg" xmlns:xlink="http://www.w3.org/1999/xlink">
	<desc>
			Created with Pixso.
	</desc>
	<defs>
		<clipPath id="clip102_1">
			<rect id="group_3pfeaq1nm193" width="475.851013" height="475.851013" fill="white" fill-opacity="0"/>
		</clipPath>
	</defs>
	<g clip-path="url(#clip102_1)">
		<path id="path" d="M151.54 145.27C151.54 168.66 160.69 195.65 176.01 217.48C193.39 242.26 215.38 255.91 237.92 255.91C260.45 255.91 282.44 242.26 299.83 217.48C315.14 195.65 324.29 168.66 324.29 145.27C324.29 97.64 285.54 58.9 237.92 58.9C190.29 58.9 151.54 97.64 151.54 145.27ZM237.92 73.9C277.27 73.9 309.29 105.92 309.29 145.27C309.29 165.39 300.96 189.76 287.55 208.87C273.26 229.23 255.17 240.91 237.92 240.91C220.67 240.91 202.58 229.23 188.29 208.87C174.88 189.76 166.54 165.39 166.54 145.27C166.54 105.91 198.56 73.9 237.92 73.9Z" fill="#044382" fill-opacity="1.000000" fill-rule="nonzero"/>
		<path id="path" d="M302.37 239.16C299.51 237.8 296.1 238.38 293.85 240.62C277.07 257.35 257.73 266.19 237.91 266.19C218.09 266.19 198.75 257.35 181.99 240.63C179.74 238.38 176.33 237.8 173.47 239.16C148.22 251.18 126.84 269.99 111.66 293.55C96.06 317.75 87.82 345.83 87.82 374.75L87.82 374.87C87.82 376.98 88.71 379 90.28 380.42C130.77 417.14 183.2 437.37 237.91 437.37C292.62 437.37 345.05 417.14 385.54 380.42C387.11 379 388.01 376.98 388.01 374.87L388.01 374.75C388.01 345.83 379.76 317.75 364.17 293.55C348.99 269.99 327.62 251.18 302.37 239.16ZM237.91 422.37C188.05 422.37 140.23 404.34 102.86 371.54C103.44 346.64 110.81 322.55 124.27 301.68C137.01 281.91 154.59 265.85 175.33 255C194.07 272.16 215.61 281.19 237.91 281.19C260.21 281.19 281.76 272.16 300.51 255C321.25 265.85 338.82 281.91 351.56 301.68C365.02 322.55 372.39 346.64 372.97 371.54C335.6 404.34 287.77 422.37 237.91 422.37Z" fill="#044382" fill-opacity="1.000000" fill-rule="nonzero"/>
		<path id="path" d="M455.07 243.89C441.84 223.35 423.22 206.96 401.21 196.49C398.35 195.12 394.93 195.71 392.69 197.95C378.38 212.22 361.9 219.76 345.04 219.76C335.89 219.76 326.85 217.56 318.16 213.21C314.46 211.36 309.95 212.86 308.1 216.56C306.24 220.27 307.74 224.77 311.45 226.62C322.24 232.02 333.54 234.76 345.04 234.76C364.37 234.76 383.04 227.03 399.32 212.33C416.83 221.62 431.67 235.26 442.46 252.01C453.91 269.77 460.22 290.25 460.8 311.43C442.28 327.58 420.25 339.88 396.89 347.06C392.93 348.28 390.71 352.48 391.93 356.43C392.92 359.66 395.89 361.73 399.1 361.73C399.83 361.73 400.57 361.62 401.3 361.4C427.81 353.24 452.74 339.04 473.39 320.31C474.95 318.89 475.85 316.87 475.85 314.75L475.85 314.65C475.85 289.45 468.66 264.98 455.07 243.89Z" fill="#044382" fill-opacity="1.000000" fill-rule="nonzero"/>
		<path id="path" d="M130.49 210.47C138.42 210.47 146.33 208.53 154 204.72C157.71 202.88 159.23 198.38 157.38 194.67C155.54 190.96 151.04 189.44 147.33 191.29C141.75 194.06 136.08 195.47 130.49 195.47C115.95 195.47 100.65 185.55 88.52 168.27C77.08 151.95 69.96 131.16 69.96 114C69.96 80.63 97.11 53.47 130.49 53.47C146.24 53.47 161.16 59.5 172.49 70.43C175.47 73.31 180.22 73.22 183.1 70.24C185.97 67.26 185.89 62.51 182.91 59.64C168.76 45.99 150.14 38.48 130.49 38.48C88.84 38.48 54.96 72.36 54.96 114C54.96 134.38 62.92 157.89 76.25 176.88C91.44 198.54 110.7 210.47 130.49 210.47Z" fill="#044382" fill-opacity="1.000000" fill-rule="nonzero"/>
		<path id="path" d="M61.03 340.14C44.28 332.92 28.82 323.17 15.04 311.13C15.62 290.02 21.91 269.6 33.33 251.89C44.09 235.19 58.89 221.6 76.34 212.33C92.58 226.99 111.2 234.7 130.48 234.7C142.07 234.7 153.45 231.92 164.31 226.42C168.01 224.55 169.49 220.04 167.62 216.35C165.75 212.65 161.24 211.17 157.54 213.04C148.8 217.46 139.69 219.7 130.48 219.7C113.67 219.7 97.24 212.18 82.98 197.95C80.73 195.71 77.32 195.12 74.46 196.49C52.5 206.94 33.92 223.29 20.72 243.77C7.16 264.81 0 289.22 0 314.36L0 314.46C0 316.58 0.89 318.59 2.46 320.02C18.08 334.19 35.79 345.6 55.09 353.91C56.06 354.33 57.07 354.53 58.06 354.53C60.96 354.53 63.72 352.83 64.95 350C66.59 346.19 64.83 341.78 61.03 340.14Z" fill="#044382" fill-opacity="1.000000" fill-rule="nonzero"/>
		<path id="path" d="M69.85 351C67.18 357.44 74.38 363.83 80.47 360.39C83.7 358.55 85.15 354.45 83.69 351C81.29 344.86 72.32 345.05 69.85 351Z" fill="#044382" fill-opacity="1.000000" fill-rule="nonzero"/>
		<path id="path" d="" fill="#044382" fill-opacity="1.000000" fill-rule="nonzero"/>
		<path id="path" d="M303.34 70.43C314.68 59.5 329.6 53.48 345.35 53.48C378.72 53.48 405.87 80.63 405.87 114C405.87 131.16 398.76 151.95 387.31 168.27C375.18 185.55 359.89 195.47 345.35 195.47C339.75 195.47 334.09 194.06 328.5 191.29C324.79 189.44 320.29 190.96 318.45 194.67C316.61 198.38 318.12 202.88 321.83 204.72C329.5 208.54 337.42 210.47 345.35 210.47C365.13 210.47 384.39 198.54 399.59 176.88C412.92 157.89 420.87 134.38 420.87 114C420.87 72.36 386.99 38.48 345.35 38.48C325.69 38.48 307.07 45.99 292.93 59.64C289.94 62.51 289.86 67.26 292.74 70.24C295.61 73.22 300.36 73.31 303.34 70.43Z" fill="#044382" fill-opacity="1.000000" fill-rule="nonzero"/>
	</g>
</svg>
