<svg width="496.000000" height="496.000000" viewBox="0 0 496 496" fill="none" xmlns="http://www.w3.org/2000/svg" xmlns:xlink="http://www.w3.org/1999/xlink">
	<desc>
			Created with Pixso.
	</desc>
	<defs>
		<clipPath id="clip102_28">
			<rect id="konferentsiya_rpbf1ei71xv3" width="496.000000" height="496.000000" fill="white" fill-opacity="0"/>
		</clipPath>
	</defs>
	<g clip-path="url(#clip102_28)">
		<path id="path" d="M32 128L48 128L48 144L32 144L32 128Z" fill="#044382" fill-opacity="1.000000" fill-rule="nonzero"/>
		<path id="path" d="M64 128L144 128L144 144L64 144L64 128Z" fill="#044382" fill-opacity="1.000000" fill-rule="nonzero"/>
		<path id="path" d="M440.29 144L496 144L496 64L432 64L432 32L396.94 32L380.94 0L115.05 0L99.05 32L64 32L64 96L0 96L0 176L64 176L64 310.49C49.67 318.8 40 334.28 40 352L40 368C40 382.16 46.2 394.87 56 403.68L56 417.97L23.2 427.33C9.54 431.23 0 443.88 0 458.1L0 496L496 496L496 458.1C496 443.89 486.45 431.23 472.79 427.32L440 417.96L440 403.68C449.79 394.88 456 382.17 456 368L456 352C456 334.28 446.32 318.8 432 310.49L432 151.1L440.29 144ZM480 128L434.36 128L408 150.6L408 128L368 128L368 80L480 80L480 128ZM124.94 16L371.05 16L379.05 32L116.94 32L124.94 16ZM16 112L160 112L160 160L120 160L120 182.6L93.63 160L16 160L16 112ZM56 352C56 334.35 70.35 320 88 320C105.64 320 120 334.35 120 352L120 368C120 385.64 105.64 400 88 400C70.35 400 56 385.64 56 368L56 352ZM168 344L168 320L212.32 320C204.68 328.5 200 339.69 200 352L200 368C200 382.16 206.2 394.87 216 403.68L216 417.97L183.2 427.33C177.14 429.07 171.96 432.59 168 437.14C164.03 432.59 158.85 429.07 152.79 427.33L120 417.96L120 403.68C129.79 394.88 136 382.17 136 368L136 352C136 339.69 131.31 328.5 123.68 320L152 320L152 344L168 344ZM344 344L344 320L372.32 320C364.68 328.5 360 339.69 360 352L360 368C360 382.16 366.2 394.87 376 403.68L376 417.97L343.2 427.33C337.14 429.07 331.96 432.59 328 437.14C324.03 432.59 318.85 429.07 312.79 427.33L280 417.96L280 403.68C289.79 394.88 296 382.17 296 368L296 352C296 339.69 291.31 328.5 283.68 320L328 320L328 344L344 344ZM320 480L176 480L176 458.1C176 450.99 180.77 444.67 187.6 442.71L220.55 433.3C225.19 439.35 234.22 448 248 448C261.77 448 270.8 439.35 275.44 433.29L308.39 442.71C315.22 444.67 320 450.99 320 458.1L320 480ZM248 416C253.61 416 258.98 414.97 264 413.19L264 421.8C262.01 424.86 256.5 432 248 432C239.49 432 233.98 424.85 232 421.8L232 413.19C237.01 414.97 242.38 416 248 416ZM280 352L280 368C280 385.64 265.64 400 248 400C230.35 400 216 385.64 216 368L216 352C216 334.35 230.35 320 248 320C265.64 320 280 334.35 280 352ZM88 416C93.61 416 98.98 414.97 104 413.19L104 421.8C102.01 424.86 96.5 432 88 432C79.49 432 73.98 424.85 72 421.8L72 413.19C77.01 414.97 82.38 416 88 416ZM16 458.1C16 450.99 20.77 444.67 27.6 442.71L60.55 433.3C65.19 439.35 74.22 448 88 448C101.77 448 110.8 439.35 115.44 433.29L148.39 442.71C155.22 444.67 160 450.99 160 458.1L160 480L16 480L16 458.1ZM468.39 442.71C475.22 444.67 480 450.99 480 458.1L480 480L336 480L336 458.1C336 450.99 340.77 444.67 347.6 442.71L380.55 433.3C385.19 439.35 394.22 448 408 448C421.77 448 430.8 439.35 435.44 433.29L468.39 442.71ZM424 421.8C422.01 424.86 416.5 432 408 432C399.49 432 393.98 424.85 392 421.8L392 413.19C397.01 414.98 402.38 416 408 416C413.61 416 418.98 414.97 424 413.19L424 421.8ZM440 368C440 385.64 425.64 400 408 400C390.35 400 376 385.64 376 368L376 352C376 334.35 390.35 320 408 320C425.64 320 440 334.35 440 352L440 368ZM80 304L80 288L283.31 288L315.31 256L416 256L416 304L80 304ZM248 184C225.94 184 208 166.05 208 144L208 120C208 97.94 225.94 80 248 80C270.05 80 288 97.94 288 120L288 144C288 166.05 270.05 184 248 184ZM248 200C253.55 200 258.93 199.16 264 197.64L264 205.79C262.01 208.86 256.5 216 248 216C239.49 216 233.98 208.85 232 205.8L232 197.64C237.07 199.16 242.44 200 248 200ZM220.61 217.36C225.27 223.41 234.28 232 248 232C261.71 232 270.72 223.41 275.38 217.36L326.88 232.82C331.22 234.12 334.96 236.69 337.89 240L308.68 240L276.68 272L152 272L152 255.81C152 245.13 158.87 235.89 169.1 232.82L220.61 217.36ZM416 240L356.67 240C352.02 229.28 342.84 220.91 331.48 217.49L280 202.04L280 189.88C294.48 179.75 304 162.97 304 144L304 120C304 89.12 278.87 64 248 64C217.12 64 192 89.12 192 120L192 144C192 162.97 201.51 179.76 216 189.88L216 202.04L164.5 217.49C147.45 222.6 136 238 136 255.81L136 272L80 272L80 176L87.7 176L136 217.39L136 176L176 176L176 96L80 96L80 48L416 48L416 64L352 64L352 144L392 144L392 185.39L416 164.82L416 240Z" fill="#044382" fill-opacity="1.000000" fill-rule="nonzero"/>
		<path id="path" d="M448 96L464 96L464 112L448 112L448 96Z" fill="#044382" fill-opacity="1.000000" fill-rule="nonzero"/>
		<path id="path" d="M384 96L432 96L432 112L384 112L384 96Z" fill="#044382" fill-opacity="1.000000" fill-rule="nonzero"/>
		<path id="path" d="M384 272L400 272L400 288L384 288L384 272Z" fill="#044382" fill-opacity="1.000000" fill-rule="nonzero"/>
		<path id="path" d="M352 272L368 272L368 288L352 288L352 272Z" fill="#044382" fill-opacity="1.000000" fill-rule="nonzero"/>
		<path id="path" d="M320 272L336 272L336 288L320 288L320 272Z" fill="#044382" fill-opacity="1.000000" fill-rule="nonzero"/>
	</g>
</svg>
