<svg width="54.000000" height="54.000000" viewBox="0 0 54 54" fill="none" xmlns="http://www.w3.org/2000/svg" xmlns:xlink="http://www.w3.org/1999/xlink">
	<desc>
			Created with Pixso.
	</desc>
	<defs>
		<clipPath id="clip65_179">
			<rect id="9320225_online_concert_interaction_untact_icon" width="54.000000" height="54.000000" fill="white" fill-opacity="0"/>
		</clipPath>
	</defs>
	<g clip-path="url(#clip65_179)">
		<line id="line" x1="42.681641" y1="40.150635" x2="45.067871" y2="42.537109" stroke="#044382" stroke-opacity="1.000000" stroke-width="2.000000"/>
		<line id="line" x1="45.068359" y1="40.150635" x2="42.682129" y2="42.537109" stroke="#044382" stroke-opacity="1.000000" stroke-width="2.000000"/>
		<path id="polyline" d="M35.66 35.57L35.64 35.59C35.08 35.59 34.64 35.15 34.64 34.59C34.64 34.03 35.08 33.59 35.64 33.59L35.66 33.61L35.66 35.57ZM17.48 33.61L17.5 33.59C18.06 33.59 18.5 34.03 18.5 34.59C18.5 35.15 18.06 35.59 17.5 35.59L17.48 35.57L17.48 33.61Z" fill="#000000" fill-opacity="0" fill-rule="nonzero"/>
		<path id="polyline" d="M35.64 34.59L48.09 34.59L48.09 6.75L5.9 6.75L5.9 34.59L17.5 34.59" stroke="#044382" stroke-opacity="1.000000" stroke-width="2.000000" stroke-linejoin="round" stroke-linecap="round"/>
		<path id="path" d="M36.41 36.85L36.43 36.87C36.43 37.43 35.99 37.87 35.43 37.87C34.87 37.87 34.43 37.43 34.43 36.87L34.45 36.85L36.41 36.85ZM18.69 36.85L18.71 36.87C18.71 37.43 18.27 37.87 17.71 37.87C17.15 37.87 16.71 37.43 16.71 36.87L16.73 36.85L18.69 36.85Z" fill="#000000" fill-opacity="0" fill-rule="nonzero"/>
		<path id="path" d="M35.43 36.87L35.43 32.92C35.43 32.25 35.3 31.6 35.05 30.98C34.79 30.35 34.42 29.8 33.94 29.33C33.47 28.85 32.92 28.48 32.29 28.23C31.67 27.97 31.02 27.84 30.35 27.84L22.8 27.84C22.12 27.84 21.47 27.97 20.85 28.23C20.23 28.48 19.68 28.85 19.2 29.33C18.73 29.8 18.36 30.35 18.1 30.98C17.84 31.6 17.71 32.25 17.71 32.92L17.71 36.87" stroke="#044382" stroke-opacity="1.000000" stroke-width="2.000000" stroke-linejoin="round" stroke-linecap="round"/>
		<path id="path" d="M29.66 27.61L29.68 27.63C29.68 28.19 29.24 28.63 28.68 28.63C28.12 28.63 27.68 28.19 27.68 27.63L27.7 27.61L29.66 27.61ZM25.44 27.56L25.46 27.58C25.46 28.14 25.02 28.58 24.46 28.58C23.9 28.58 23.46 28.14 23.46 27.58L23.48 27.56L25.44 27.56Z" fill="#000000" fill-opacity="0" fill-rule="nonzero"/>
		<path id="path" d="M28.68 27.63L28.68 24.89C29.7 24.46 30.52 23.79 31.14 22.87C31.75 21.94 32.06 20.93 32.06 19.82L32.06 15.52C32.06 14.96 31.86 14.49 31.46 14.09C31.07 13.69 30.59 13.5 30.03 13.5L29.53 13.5C29.53 12.81 29.28 12.18 28.8 11.69C28.31 11.21 27.73 10.96 27.04 10.96L24.25 10.96C23.37 10.96 22.63 11.27 22.01 11.89C21.4 12.5 21.09 13.25 21.09 14.12L21.09 19.82C21.09 20.93 21.4 21.94 22.01 22.87C22.62 23.79 23.44 24.46 24.46 24.89L24.46 27.58" stroke="#044382" stroke-opacity="1.000000" stroke-width="2.000000" stroke-linejoin="round" stroke-linecap="round"/>
		<path id="path" d="" fill="#000000" fill-opacity="0" fill-rule="nonzero"/>
		<path id="path" d="M21.09 16.45C21.09 17.18 21.23 17.87 21.51 18.55C21.78 19.22 22.18 19.81 22.7 20.33C23.21 20.84 23.8 21.24 24.47 21.52C25.15 21.79 25.85 21.93 26.57 21.93C27.3 21.93 28 21.79 28.67 21.52C29.34 21.24 29.94 20.84 30.45 20.33C30.97 19.81 31.36 19.22 31.64 18.55C31.92 17.87 32.06 17.18 32.06 16.45" stroke="#044382" stroke-opacity="1.000000" stroke-width="2.000000" stroke-linejoin="round"/>
		<path id="polyline" d="M20.25 33.75L21.09 34.59L21.09 36.91L20.25 33.75ZM19.57 34.45L19.54 34.45C19.14 34.06 19.14 33.43 19.54 33.04C19.93 32.64 20.56 32.64 20.95 33.04L20.95 33.07L19.57 34.45ZM22.07 36.89L22.09 36.91C22.09 37.47 21.65 37.91 21.09 37.91C20.53 37.91 20.09 37.47 20.09 36.91L20.11 36.89L22.07 36.89Z" fill="#9DC1E4" fill-opacity="1.000000" fill-rule="nonzero"/>
		<path id="polyline" d="M20.25 33.75L21.09 34.59L21.09 36.91" stroke="#044382" stroke-opacity="1.000000" stroke-width="2.000000" stroke-linejoin="round" stroke-linecap="round"/>
		<path id="polyline" d="M32.9 33.75L32.06 34.59L32.06 36.91L32.9 33.75ZM32.19 33.07L32.19 33.04C32.59 32.64 33.21 32.64 33.61 33.04C34 33.43 34 34.06 33.61 34.45L33.58 34.45L32.19 33.07ZM33.04 36.89L33.06 36.91C33.06 37.47 32.62 37.91 32.06 37.91C31.5 37.91 31.06 37.47 31.06 36.91L31.08 36.89L33.04 36.89Z" fill="#9DC1E4" fill-opacity="1.000000" fill-rule="nonzero"/>
		<path id="polyline" d="M32.9 33.75L32.06 34.59L32.06 36.91" stroke="#044382" stroke-opacity="1.000000" stroke-width="2.000000" stroke-linejoin="round" stroke-linecap="round"/>
		<path id="path" d="M14.48 49.76L14.5 49.78C14.5 50.34 14.06 50.78 13.5 50.78C12.93 50.78 12.5 50.34 12.5 49.78L12.52 49.76L14.48 49.76ZM40.65 49.78L40.63 49.76L38.67 49.76L38.65 49.78C38.65 50.34 39.09 50.78 39.65 50.78C40.21 50.78 40.65 50.34 40.65 49.78Z" fill="#000000" fill-opacity="0" fill-rule="evenodd"/>
		<path id="path" d="M13.5 49.78L13.5 45.56C13.5 45.09 13.66 44.69 13.99 44.36C14.32 44.03 14.72 43.87 15.18 43.87C15.65 43.87 16.05 44.03 16.38 44.36C16.71 44.69 16.87 45.09 16.87 45.56L16.87 37.12L36.28 37.12L36.28 45.56C36.28 45.09 36.44 44.69 36.77 44.36C37.1 44.03 37.5 43.87 37.96 43.87C38.43 43.87 38.83 44.03 39.16 44.36C39.49 44.69 39.65 45.09 39.65 45.56L39.65 49.78" stroke="#044382" stroke-opacity="1.000000" stroke-width="2.000000" stroke-linejoin="round" stroke-linecap="round"/>
		<ellipse id="ellipse" cx="39.234375" cy="18.562500" rx="2.109375" ry="1.687500" fill="#000000" fill-opacity="0"/>
		<ellipse id="ellipse" cx="39.234375" cy="18.562500" rx="2.109375" ry="1.687500" stroke="#044382" stroke-opacity="1.000000" stroke-width="2.000000" stroke-linejoin="round"/>
		<path id="path" d="M42.32 18.54L42.34 18.56C42.34 19.12 41.9 19.56 41.34 19.56C40.78 19.56 40.34 19.12 40.34 18.56L40.36 18.54L42.32 18.54ZM44.76 13.92L44.76 13.94C44.51 14.44 43.92 14.64 43.42 14.39C42.92 14.14 42.73 13.55 42.98 13.05L43 13.04L44.76 13.92Z" fill="#000000" fill-opacity="0" fill-rule="nonzero"/>
		<path id="path" d="M41.34 18.56L41.34 10.12C41.34 10.12 44.71 11.81 43.87 13.5" stroke="#044382" stroke-opacity="1.000000" stroke-width="2.000000" stroke-linejoin="round" stroke-linecap="round"/>
		<ellipse id="ellipse" cx="12.234375" cy="26.156250" rx="2.109375" ry="1.687500" fill="#000000" fill-opacity="0"/>
		<ellipse id="ellipse" cx="12.234375" cy="26.156250" rx="2.109375" ry="1.687500" stroke="#044382" stroke-opacity="1.000000" stroke-width="2.000000" stroke-linejoin="round"/>
		<path id="path" d="M15.32 26.13L15.34 26.15C15.34 26.71 14.9 27.15 14.34 27.15C13.78 27.15 13.34 26.71 13.34 26.15L13.36 26.13L15.32 26.13ZM17.76 21.51L17.76 21.54C17.51 22.04 16.92 22.23 16.42 21.98C15.92 21.73 15.73 21.14 15.98 20.64L16 20.63L17.76 21.51Z" fill="#000000" fill-opacity="0" fill-rule="nonzero"/>
		<path id="path" d="M14.34 26.15L14.34 17.71C14.34 17.71 17.71 19.4 16.87 21.09" stroke="#044382" stroke-opacity="1.000000" stroke-width="2.000000" stroke-linejoin="round" stroke-linecap="round"/>
		<circle id="circle" cx="13.359375" cy="13.529297" r="0.902053" fill="#044382" fill-opacity="1.000000"/>
		<circle id="circle" cx="36.140625" cy="25.341797" r="0.902053" fill="#044382" fill-opacity="1.000000"/>
		<ellipse id="circle" cx="36.140625" cy="11.841797" rx="0.902053" ry="0.902053" fill="#044382" fill-opacity="1.000000"/>
		<circle id="circle" cx="43.734375" cy="26.185547" r="0.902053" fill="#044382" fill-opacity="1.000000"/>
		<ellipse id="circle" cx="9.984375" cy="21.123047" rx="0.902053" ry="0.902053" fill="#044382" fill-opacity="1.000000"/>
		<line id="line" x1="5.906250" y1="32.062500" x2="17.718750" y2="32.062500" stroke="#044382" stroke-opacity="1.000000" stroke-width="2.000000"/>
		<line id="line" x1="35.437500" y1="32.062500" x2="48.093750" y2="32.062500" stroke="#044382" stroke-opacity="1.000000" stroke-width="2.000000"/>
	</g>
</svg>
