<svg width="54.000000" height="54.000000" viewBox="0 0 54 54" fill="none" xmlns="http://www.w3.org/2000/svg" xmlns:xlink="http://www.w3.org/1999/xlink">
	<desc>
			Created with Pixso.
	</desc>
	<defs>
		<clipPath id="clip65_216">
			<rect id="reshot-icon-student-9ART2L67NM-07f3c" width="54.000000" height="54.000000" fill="white" fill-opacity="0"/>
		</clipPath>
	</defs>
	<g clip-path="url(#clip65_216)">
		<path id="path" d="M48.93 8.43L48.09 8.43L48.09 6.75C48.09 5.81 47.76 5.02 47.1 4.36C46.44 3.7 45.65 3.37 44.71 3.37C43.78 3.37 42.99 3.7 42.33 4.36C41.67 5.02 41.34 5.81 41.34 6.75L41.34 8.43L36.28 8.43L36.28 6.75C36.28 5.81 35.95 5.02 35.29 4.36C34.63 3.7 33.83 3.37 32.9 3.37C31.97 3.37 31.17 3.7 30.51 4.36C29.86 5.02 29.53 5.81 29.53 6.75L29.53 8.43L24.46 8.43L24.46 6.75C24.46 5.81 24.13 5.02 23.48 4.36C22.82 3.7 22.02 3.37 21.09 3.37C20.16 3.37 19.36 3.7 18.7 4.36C18.04 5.02 17.71 5.81 17.71 6.75L17.71 8.43L12.65 8.43L12.65 6.75C12.65 5.81 12.32 5.02 11.66 4.36C11 3.7 10.21 3.37 9.28 3.37C8.34 3.37 7.55 3.7 6.89 4.36C6.23 5.02 5.9 5.81 5.9 6.75L5.9 8.43L5.06 8.43C4.39 8.43 3.74 8.56 3.12 8.82C2.5 9.08 1.95 9.44 1.48 9.92C1 10.39 0.64 10.94 0.38 11.56C0.12 12.18 0 12.82 0 13.5L0 45.56C0 46.23 0.12 46.87 0.38 47.49C0.64 48.11 1 48.66 1.48 49.14C1.95 49.61 2.5 49.98 3.12 50.23C3.74 50.49 4.39 50.62 5.06 50.62L48.93 50.62C49.6 50.62 50.25 50.49 50.87 50.23C51.49 49.98 52.04 49.61 52.51 49.14C52.99 48.66 53.35 48.11 53.61 47.49C53.87 46.87 53.99 46.23 54 45.56L54 13.5C53.99 12.82 53.87 12.18 53.61 11.56C53.35 10.94 52.99 10.39 52.51 9.92C52.04 9.44 51.49 9.08 50.87 8.82C50.25 8.56 49.6 8.43 48.93 8.43ZM43.03 6.75C43.03 6.28 43.19 5.88 43.52 5.55C43.85 5.22 44.25 5.06 44.71 5.06C45.18 5.06 45.58 5.22 45.91 5.55C46.24 5.88 46.4 6.28 46.4 6.75L46.4 11.81C46.4 12.27 46.24 12.67 45.91 13C45.58 13.33 45.18 13.5 44.71 13.5C44.25 13.5 43.85 13.33 43.52 13C43.19 12.67 43.03 12.27 43.03 11.81L43.03 6.75ZM31.21 6.75C31.21 6.28 31.38 5.88 31.71 5.55C32.04 5.22 32.44 5.06 32.9 5.06C33.37 5.06 33.77 5.22 34.09 5.55C34.42 5.88 34.59 6.28 34.59 6.75L34.59 11.81C34.59 12.27 34.42 12.67 34.09 13C33.77 13.33 33.37 13.5 32.9 13.5C32.44 13.5 32.04 13.33 31.71 13C31.38 12.67 31.21 12.27 31.21 11.81L31.21 6.75ZM19.4 6.75C19.4 6.28 19.57 5.88 19.9 5.55C20.23 5.22 20.62 5.06 21.09 5.06C21.55 5.06 21.95 5.22 22.28 5.55C22.61 5.88 22.78 6.28 22.78 6.75L22.78 11.81C22.78 12.27 22.61 12.67 22.28 13C21.95 13.33 21.55 13.5 21.09 13.5C20.62 13.5 20.23 13.33 19.9 13C19.57 12.67 19.4 12.27 19.4 11.81L19.4 6.75ZM7.59 6.75C7.59 6.28 7.75 5.88 8.08 5.55C8.41 5.22 8.81 5.06 9.28 5.06C9.74 5.06 10.14 5.22 10.47 5.55C10.8 5.88 10.96 6.28 10.96 6.75L10.96 11.81C10.96 12.27 10.8 12.67 10.47 13C10.14 13.33 9.74 13.5 9.28 13.5C8.81 13.5 8.41 13.33 8.08 13C7.75 12.67 7.59 12.27 7.59 11.81L7.59 6.75ZM5.06 10.12L5.9 10.12L5.9 11.81C5.9 12.74 6.23 13.54 6.89 14.19C7.55 14.85 8.34 15.18 9.28 15.18C10.21 15.18 11 14.85 11.66 14.19C12.32 13.54 12.65 12.74 12.65 11.81L12.65 10.12L17.71 10.12L17.71 11.81C17.71 12.74 18.04 13.54 18.7 14.19C19.36 14.85 20.16 15.18 21.09 15.18C22.02 15.18 22.82 14.85 23.48 14.19C24.13 13.54 24.46 12.74 24.46 11.81L24.46 10.12L29.53 10.12L29.53 11.81C29.53 12.74 29.86 13.54 30.51 14.19C31.17 14.85 31.97 15.18 32.9 15.18C33.83 15.18 34.63 14.85 35.29 14.19C35.95 13.54 36.28 12.74 36.28 11.81L36.28 10.12L41.34 10.12L41.34 11.81C41.34 12.74 41.67 13.54 42.33 14.19C42.99 14.85 43.78 15.18 44.71 15.18C45.65 15.18 46.44 14.85 47.1 14.19C47.76 13.54 48.09 12.74 48.09 11.81L48.09 10.12L48.93 10.12C49.86 10.12 50.66 10.45 51.32 11.11C51.98 11.77 52.31 12.56 52.31 13.5L52.31 18.56L1.68 18.56L1.68 13.5C1.68 12.56 2.01 11.77 2.67 11.11C3.33 10.45 4.13 10.12 5.06 10.12ZM48.93 48.93L5.06 48.93C4.13 48.93 3.33 48.6 2.67 47.94C2.01 47.29 1.68 46.49 1.68 45.56L1.68 20.25L52.31 20.25L52.31 45.56C52.31 46.49 51.98 47.29 51.32 47.94C50.66 48.6 49.86 48.93 48.93 48.93Z" fill="#044382" fill-opacity="1.000000" fill-rule="nonzero"/>
		<path id="path" d="M41.7 29.61L27.35 22.86C27.11 22.75 26.88 22.75 26.64 22.86L12.29 29.61C11.97 29.76 11.81 30.02 11.81 30.37C11.81 30.73 11.97 30.99 12.29 31.14L16.87 33.29L16.87 41.19C16.87 41.54 17.03 41.8 17.35 41.95L26.64 46.32C26.88 46.43 27.11 46.43 27.35 46.32L36.64 41.95C36.96 41.8 37.12 41.54 37.12 41.19L37.12 33.29L40.5 31.7L40.5 42.18C40.5 42.75 40.78 43.03 41.34 43.03C41.9 43.03 42.18 42.75 42.18 42.18L42.18 30.37C42.17 30.02 42.01 29.77 41.7 29.61ZM35.43 40.65L27 44.63L18.56 40.65L18.56 34.08L26.64 37.88C26.88 38 27.11 38 27.35 37.88L35.43 34.08L35.43 40.65ZM27 36.19L18.07 31.99L14.63 30.37L27 24.55L39.36 30.37C38.77 30.65 35.91 31.99 27 36.19Z" fill="#044382" fill-opacity="1.000000" fill-rule="nonzero"/>
	</g>
</svg>
