<svg width="26.367188" height="26.371338" viewBox="0 0 26.3672 26.3713" fill="none" xmlns="http://www.w3.org/2000/svg" xmlns:xlink="http://www.w3.org/1999/xlink">
	<desc>
			Created with Pixso.
	</desc>
	<defs/>
	<path id="path1235" d="M15.07 0C8.84 0 3.77 5.07 3.77 11.3C3.77 14.07 4.79 16.61 6.45 18.58L0.34 24.69C-0.12 25.14 -0.12 25.58 0.33 26.03C0.78 26.48 1.23 26.48 1.67 26.02L7.78 19.91C9.75 21.58 12.29 22.59 15.07 22.59C21.3 22.59 26.36 17.52 26.36 11.3C26.36 5.07 21.3 0 15.07 0ZM15.07 1.97C20.23 1.97 24.4 6.13 24.4 11.3C24.4 16.46 20.23 20.62 15.07 20.62C9.9 20.62 5.74 16.46 5.74 11.3C5.74 6.13 9.9 1.97 15.07 1.97Z" fill="#B5B7C0" fill-opacity="1.000000" fill-rule="nonzero"/>
</svg>
