<svg width="34.000000" height="34.000000" viewBox="0 0 34 34" fill="none" xmlns="http://www.w3.org/2000/svg" xmlns:xlink="http://www.w3.org/1999/xlink">
	<desc>
			Created with Pixso.
	</desc>
	<defs>
		<clipPath id="clip65_135">
			<rect id="3643771_configuration_configure_gear_set_setting_icon" width="34.000000" height="34.000000" fill="white" fill-opacity="0"/>
		</clipPath>
	</defs>
	<g clip-path="url(#clip65_135)">
		<path id="path" d="M18.06 32.93L15.93 32.93C15.12 32.94 14.41 32.67 13.8 32.14C13.2 31.6 12.84 30.93 12.75 30.13C12.03 29.9 11.34 29.62 10.67 29.28C10.04 29.78 9.31 30.01 8.5 29.96C7.68 29.91 6.99 29.59 6.42 29.01L4.98 27.51C4.4 26.94 4.08 26.25 4.03 25.44C3.98 24.63 4.21 23.9 4.71 23.26C4.37 22.61 4.09 21.94 3.86 21.25C3.06 21.15 2.39 20.79 1.85 20.19C1.32 19.58 1.05 18.87 1.06 18.06L1.06 15.93C1.05 15.12 1.32 14.41 1.85 13.8C2.39 13.2 3.06 12.84 3.86 12.75C4.09 12.03 4.37 11.34 4.71 10.67C4.21 10.03 3.98 9.31 4.03 8.5C4.08 7.69 4.4 6.99 4.98 6.42L6.48 4.98C7.05 4.4 7.74 4.08 8.55 4.03C9.36 3.98 10.09 4.21 10.73 4.71C11.38 4.37 12.05 4.09 12.75 3.86C12.84 3.06 13.2 2.39 13.8 1.85C14.41 1.32 15.12 1.05 15.93 1.06L18.06 1.06C18.87 1.05 19.58 1.32 20.19 1.85C20.79 2.39 21.15 3.06 21.25 3.86C21.96 4.09 22.65 4.37 23.32 4.71C23.96 4.21 24.68 3.98 25.49 4.03C26.31 4.08 27 4.4 27.57 4.98L29.01 6.48C29.59 7.05 29.91 7.74 29.96 8.55C30.01 9.36 29.78 10.09 29.28 10.73C29.62 11.39 29.9 12.08 30.13 12.8C30.92 12.89 31.59 13.24 32.12 13.84C32.65 14.43 32.93 15.13 32.93 15.93L32.93 18.06C32.94 18.87 32.67 19.58 32.14 20.19C31.6 20.79 30.93 21.15 30.13 21.25C29.9 21.96 29.62 22.65 29.28 23.32C29.78 23.96 30.01 24.68 29.96 25.49C29.91 26.31 29.59 27 29.01 27.57L27.51 29.01C26.94 29.59 26.25 29.91 25.44 29.96C24.63 30.01 23.9 29.78 23.26 29.28C22.6 29.62 21.91 29.9 21.19 30.13C21.1 30.92 20.75 31.59 20.15 32.12C19.56 32.65 18.86 32.92 18.06 32.93ZM10.52 26.91C10.72 26.9 10.9 26.95 11.07 27.06C12.01 27.61 13.01 28.03 14.07 28.3C14.62 28.44 14.89 28.8 14.87 29.36L14.87 29.75C14.87 30.45 15.22 30.81 15.93 30.81L18.06 30.81C18.77 30.81 19.12 30.45 19.12 29.75L19.12 29.33C19.1 28.76 19.37 28.41 19.92 28.27C20.98 27.99 21.98 27.58 22.92 27.03C23.39 26.75 23.82 26.8 24.21 27.18L24.51 27.48C25.01 27.99 25.51 27.99 26.02 27.48L27.51 25.98C28.02 25.48 28.02 24.98 27.51 24.48L27.22 24.18C26.83 23.79 26.78 23.36 27.06 22.89C27.61 21.95 28.03 20.95 28.3 19.89C28.44 19.34 28.8 19.07 29.36 19.09L29.75 19.09C30.45 19.09 30.81 18.73 30.81 18.03L30.81 15.93C30.81 15.22 30.45 14.87 29.75 14.87L29.33 14.87C28.76 14.89 28.41 14.62 28.27 14.07C27.99 13.01 27.58 12.01 27.03 11.07C26.75 10.6 26.8 10.17 27.18 9.78L27.48 9.48C27.99 8.98 27.99 8.48 27.48 7.97L26.02 6.48C25.51 5.97 25.01 5.97 24.51 6.48L24.21 6.77C23.82 7.16 23.39 7.21 22.92 6.93C21.98 6.38 20.98 5.96 19.92 5.69C19.37 5.55 19.1 5.19 19.12 4.63L19.12 4.25C19.12 3.54 18.77 3.18 18.06 3.18L15.93 3.18C15.22 3.18 14.87 3.54 14.87 4.25L14.87 4.66C14.89 5.23 14.62 5.58 14.07 5.72C13.01 6 12.01 6.41 11.07 6.96C10.6 7.24 10.17 7.19 9.78 6.81L9.48 6.48C8.98 5.97 8.48 5.97 7.97 6.48L6.48 7.97C5.97 8.48 5.97 8.98 6.48 9.48L6.77 9.78C7.16 10.17 7.21 10.6 6.93 11.07C6.38 12.01 5.96 13.01 5.69 14.07C5.55 14.62 5.19 14.89 4.63 14.87L4.25 14.87C3.54 14.87 3.18 15.22 3.18 15.93L3.18 18.06C3.18 18.77 3.54 19.12 4.25 19.12L4.66 19.12C5.23 19.1 5.58 19.37 5.72 19.92C6 20.98 6.41 21.98 6.97 22.92C7.24 23.39 7.19 23.82 6.81 24.21L6.51 24.51C6 25.01 6 25.51 6.51 26.02L7.97 27.51C8.48 28.02 8.98 28.02 9.48 27.51L9.78 27.22C9.99 27.01 10.23 26.91 10.52 26.91Z" fill="#FFFFFF" fill-opacity="1.000000" fill-rule="nonzero"/>
		<path id="path" d="M17 24.43C16.01 24.43 15.06 24.24 14.15 23.87C13.24 23.49 12.43 22.95 11.74 22.25C11.04 21.56 10.5 20.75 10.12 19.84C9.75 18.93 9.56 17.98 9.56 17C9.56 16.01 9.75 15.06 10.12 14.15C10.5 13.24 11.04 12.43 11.74 11.74C12.43 11.04 13.24 10.5 14.15 10.12C15.06 9.75 16.01 9.56 17 9.56C17.98 9.56 18.93 9.75 19.84 10.12C20.75 10.5 21.56 11.04 22.25 11.74C22.95 12.43 23.49 13.24 23.87 14.15C24.24 15.06 24.43 16.01 24.43 17C24.43 17.98 24.24 18.93 23.87 19.84C23.49 20.75 22.95 21.56 22.25 22.25C21.56 22.95 20.75 23.49 19.84 23.87C18.93 24.24 17.98 24.43 17 24.43ZM17 11.68C16.29 11.68 15.61 11.82 14.96 12.09C14.31 12.36 13.74 12.74 13.24 13.24C12.74 13.74 12.36 14.31 12.09 14.96C11.82 15.61 11.68 16.29 11.68 17C11.68 17.7 11.82 18.38 12.09 19.03C12.36 19.68 12.74 20.25 13.24 20.75C13.74 21.25 14.31 21.63 14.96 21.9C15.61 22.17 16.29 22.31 17 22.31C17.7 22.31 18.38 22.17 19.03 21.9C19.68 21.63 20.25 21.25 20.75 20.75C21.25 20.25 21.63 19.68 21.9 19.03C22.17 18.38 22.31 17.7 22.31 17C22.31 16.29 22.17 15.61 21.9 14.96C21.63 14.31 21.25 13.74 20.75 13.24C20.25 12.74 19.68 12.36 19.03 12.09C18.38 11.82 17.7 11.68 17 11.68Z" fill="#FFFFFF" fill-opacity="1.000000" fill-rule="nonzero"/>
	</g>
</svg>
