<svg width="512.000000" height="512.000000" viewBox="0 0 512 512" fill="none" xmlns="http://www.w3.org/2000/svg" xmlns:xlink="http://www.w3.org/1999/xlink">
	<desc>
			Created with Pixso.
	</desc>
	<defs>
		<clipPath id="clip102_24">
			<rect id="sport_71qlik1n211a" width="512.000000" height="512.000000" fill="white" fill-opacity="0"/>
		</clipPath>
	</defs>
	<g clip-path="url(#clip102_24)">
		<path id="path" d="M160.4 210.16C134.65 235.91 120.38 270.04 120.19 306.29C120.01 342.59 133.98 376.65 159.54 402.2C185.74 428.4 220.2 441.48 254.77 441.48C255.14 441.48 255.51 441.47 255.88 441.47C255.98 441.51 256.03 441.54 256.04 441.54C256.57 441.54 257.09 441.5 257.6 441.45C291.64 440.74 325.56 427.36 351.59 401.34C377.34 375.6 391.62 341.46 391.8 305.22C391.98 268.92 378.01 234.85 352.45 209.3C299.74 156.59 213.59 156.98 160.4 210.16ZM340.25 368.79L310.93 339.46C325.46 327.05 342.78 318.53 361.32 314.63C359.47 334.36 352.2 353 340.25 368.79ZM151.5 323.66C177.36 320.06 201.64 309.49 221.98 292.95L234.78 305.75L170.9 369.62C160.76 356.09 154.14 340.4 151.5 323.66ZM171.74 242.71L200.62 271.6C186.04 282.8 169.08 290.25 151.05 293.38C153.39 274.94 160.5 257.57 171.74 242.71ZM273.9 201.33C290.25 203.93 306.06 210.37 319.87 220.68L256 284.54L243.2 271.74C259.72 251.42 270.29 227.16 273.9 201.33ZM221.84 250.39L192.96 221.51C208.14 210.07 225.66 203.19 243.61 200.88C240.48 218.89 233.03 235.82 221.84 250.39ZM256 326.96L269.31 340.28C253.9 360.9 244.43 385.07 241.75 410.69C224.1 408.51 206.96 401.9 192.13 390.83L256 326.96ZM290.82 361.78L319.03 389.99C304.89 400.65 288.71 407.36 272.04 410.08C274.45 392.69 280.86 376.24 290.82 361.78ZM289.66 318.2L277.21 305.75L341.09 241.88C350.52 254.47 356.91 268.93 359.89 284.35C333.89 288.91 309.59 300.6 289.66 318.2Z" fill="#044382" fill-opacity="1.000000" fill-rule="nonzero"/>
		<path id="path" d="M428.35 26.76L396 26.76L396 15C396 6.71 389.28 0 381 0C372.71 0 366 6.71 366 15L366 26.76L146 26.76L146 15C146 6.71 139.28 0 131 0C122.71 0 116 6.71 116 15L116 26.76L83.64 26.76C50.8 26.76 24.08 53.48 24.08 86.32L24.08 452.43C24.08 485.28 50.8 512 83.64 512L428.35 512C461.19 512 487.91 485.28 487.91 452.43L487.91 86.32C487.91 53.48 461.19 26.76 428.35 26.76ZM83.64 56.76L116 56.76L116 65.98C116 74.26 122.71 80.98 131 80.98C139.28 80.98 146 74.26 146 65.98L146 56.76L366 56.76L366 65.98C366 74.26 372.71 80.98 381 80.98C389.28 80.98 396 74.26 396 65.98L396 56.76L428.35 56.76C444.65 56.76 457.91 70.02 457.91 86.32L457.91 110.55L54.08 110.55L54.08 86.32C54.08 70.02 67.34 56.76 83.64 56.76ZM428.35 482L83.64 482C67.34 482 54.08 468.73 54.08 452.43L54.08 140.54L457.91 140.54L457.91 452.43C457.91 468.73 444.65 482 428.35 482Z" fill="#044382" fill-opacity="1.000000" fill-rule="nonzero"/>
	</g>
</svg>
