<svg width="40.000000" height="40.000000" viewBox="0 0 40 40" fill="none" xmlns="http://www.w3.org/2000/svg" xmlns:xlink="http://www.w3.org/1999/xlink">
	<desc>
			Created with Pixso.
	</desc>
	<defs>
		<clipPath id="clip38_360">
			<rect id="student-thin-svgrepo-com" width="40.000000" height="40.000000" fill="white" fill-opacity="0"/>
		</clipPath>
	</defs>
	<g clip-path="url(#clip38_360)">
		<path id="path" d="M35.19 9.4L20.19 4.4C20.06 4.36 19.93 4.36 19.8 4.4L4.8 9.4C4.79 9.4 4.78 9.41 4.77 9.41C4.76 9.42 4.75 9.42 4.73 9.43C4.71 9.44 4.69 9.45 4.67 9.46C4.66 9.47 4.65 9.48 4.64 9.48C4.61 9.5 4.59 9.52 4.56 9.55C4.54 9.57 4.5 9.61 4.48 9.64C4.48 9.65 4.47 9.66 4.46 9.67C4.45 9.69 4.44 9.71 4.43 9.73C4.42 9.75 4.42 9.76 4.41 9.77C4.4 9.8 4.4 9.82 4.39 9.84C4.39 9.86 4.38 9.87 4.38 9.88C4.37 9.92 4.37 9.96 4.37 10L4.37 22.5C4.37 22.67 4.43 22.81 4.55 22.94C4.68 23.06 4.82 23.12 5 23.12C5.17 23.12 5.31 23.06 5.44 22.94C5.56 22.81 5.62 22.67 5.62 22.5L5.62 10.86L12.48 13.15C12.27 13.43 12.07 13.72 11.89 14.03C11.72 14.33 11.56 14.65 11.41 14.97C11.27 15.29 11.15 15.62 11.04 15.96C10.94 16.3 10.85 16.64 10.79 16.98C10.72 17.33 10.67 17.68 10.65 18.03C10.62 18.38 10.61 18.74 10.63 19.09C10.64 19.44 10.67 19.79 10.72 20.14C10.78 20.49 10.85 20.83 10.94 21.17C11.03 21.51 11.14 21.85 11.27 22.18C11.4 22.51 11.55 22.83 11.71 23.14C11.88 23.45 12.06 23.75 12.26 24.04C12.46 24.33 12.67 24.61 12.9 24.88C13.14 25.14 13.38 25.4 13.64 25.64C13.9 25.88 14.17 26.1 14.46 26.31C14.74 26.52 15.04 26.71 15.34 26.88C15.65 27.06 15.96 27.21 16.29 27.35C14.57 27.81 12.99 28.56 11.55 29.6C10.12 30.65 8.91 31.91 7.95 33.4C7.85 33.55 7.82 33.71 7.86 33.87C7.89 34.04 7.98 34.17 8.13 34.27C8.27 34.36 8.43 34.39 8.6 34.36C8.77 34.32 8.9 34.23 8.99 34.09C9.29 33.63 9.61 33.19 9.96 32.78C10.32 32.36 10.69 31.97 11.09 31.6C11.49 31.23 11.91 30.89 12.36 30.57C12.8 30.26 13.26 29.97 13.74 29.71C14.22 29.45 14.71 29.22 15.22 29.02C15.72 28.82 16.24 28.66 16.77 28.52C17.29 28.39 17.83 28.29 18.37 28.22C18.91 28.15 19.45 28.12 20 28.12C20.54 28.12 21.08 28.15 21.62 28.22C22.16 28.29 22.7 28.39 23.22 28.52C23.75 28.66 24.27 28.82 24.77 29.02C25.28 29.22 25.77 29.45 26.25 29.71C26.73 29.97 27.19 30.26 27.63 30.57C28.08 30.89 28.5 31.23 28.9 31.6C29.3 31.97 29.67 32.36 30.03 32.78C30.38 33.19 30.7 33.63 31 34.09C31.09 34.23 31.22 34.32 31.39 34.36C31.56 34.39 31.72 34.36 31.86 34.27C32.01 34.17 32.1 34.04 32.13 33.87C32.17 33.7 32.14 33.55 32.04 33.4C31.08 31.91 29.87 30.65 28.44 29.6C27 28.56 25.42 27.81 23.7 27.35C24.03 27.21 24.34 27.06 24.65 26.88C24.95 26.71 25.25 26.52 25.53 26.31C25.82 26.1 26.09 25.88 26.35 25.64C26.61 25.4 26.85 25.14 27.09 24.88C27.32 24.61 27.53 24.33 27.73 24.04C27.93 23.75 28.11 23.45 28.28 23.14C28.44 22.83 28.59 22.51 28.72 22.18C28.85 21.85 28.96 21.51 29.05 21.17C29.14 20.83 29.21 20.49 29.27 20.14C29.32 19.79 29.35 19.44 29.36 19.09C29.38 18.74 29.37 18.38 29.34 18.03C29.32 17.68 29.27 17.33 29.2 16.98C29.14 16.64 29.05 16.3 28.95 15.96C28.84 15.62 28.72 15.29 28.58 14.97C28.43 14.65 28.27 14.33 28.1 14.03C27.92 13.72 27.73 13.43 27.51 13.15L35.19 10.59C35.32 10.55 35.42 10.47 35.5 10.36C35.58 10.25 35.62 10.13 35.62 10C35.62 9.86 35.58 9.74 35.5 9.63C35.42 9.52 35.32 9.44 35.19 9.4ZM28.12 18.75C28.12 19.07 28.1 19.39 28.06 19.72C28.02 20.04 27.97 20.36 27.89 20.67C27.81 20.99 27.72 21.3 27.6 21.6C27.49 21.91 27.35 22.2 27.21 22.49C27.06 22.78 26.89 23.06 26.71 23.33C26.52 23.59 26.32 23.85 26.11 24.09C25.9 24.34 25.67 24.57 25.43 24.79C25.19 25 24.93 25.21 24.67 25.39C24.4 25.58 24.13 25.75 23.84 25.9C23.55 26.06 23.26 26.19 22.96 26.31C22.65 26.43 22.35 26.53 22.03 26.61C21.72 26.69 21.4 26.75 21.08 26.8C20.76 26.84 20.43 26.87 20.11 26.87C19.78 26.87 19.46 26.86 19.14 26.82C18.81 26.79 18.49 26.74 18.18 26.66C17.86 26.59 17.55 26.5 17.24 26.39C16.94 26.28 16.64 26.15 16.35 26.01C16.06 25.86 15.78 25.7 15.51 25.52C15.24 25.34 14.98 25.14 14.73 24.93C14.48 24.72 14.25 24.5 14.03 24.26C13.81 24.02 13.6 23.77 13.41 23.51C13.22 23.25 13.05 22.97 12.89 22.69C12.73 22.4 12.59 22.11 12.47 21.81C12.35 21.51 12.24 21.2 12.16 20.89C12.07 20.58 12.01 20.26 11.96 19.94C11.91 19.62 11.88 19.29 11.87 18.97C11.86 18.64 11.87 18.32 11.9 18C11.93 17.67 11.98 17.35 12.05 17.04C12.12 16.72 12.21 16.41 12.31 16.1C12.42 15.79 12.54 15.49 12.68 15.2C12.83 14.91 12.98 14.63 13.16 14.35C13.34 14.08 13.53 13.82 13.73 13.57L19.8 15.59C19.93 15.63 20.06 15.63 20.19 15.59L26.26 13.57C26.86 14.29 27.32 15.1 27.64 15.99C27.96 16.88 28.12 17.8 28.12 18.75ZM26.25 12.25L20 14.34L6.97 10L20 5.65L33.02 10L26.25 12.25Z" fill="#FFFFFF" fill-opacity="1.000000" fill-rule="nonzero"/>
	</g>
</svg>
