<svg width="34.000000" height="34.000000" viewBox="0 0 34 34" fill="none" xmlns="http://www.w3.org/2000/svg" xmlns:xlink="http://www.w3.org/1999/xlink">
	<desc>
			Created with Pixso.
	</desc>
	<defs>
		<clipPath id="clip65_235">
			<rect id="3671897_solid_square_user_icon" width="34.000000" height="34.000000" fill="white" fill-opacity="0"/>
		</clipPath>
	</defs>
	<g clip-path="url(#clip65_235)">
		<path id="path" d="M0 3.39C0 1.52 1.53 0 3.39 0L30.6 0C31.53 0 32.34 0.33 33 0.99C33.66 1.65 34 2.46 34 3.39L34 30.6C34 31.53 33.66 32.34 33 33C32.34 33.66 31.53 34 30.6 34L3.39 34C2.46 34 1.65 33.66 0.99 33C0.33 32.34 0 31.53 0 30.6L0 3.39ZM11.89 10.2L11.89 13.6C11.89 15 12.39 16.21 13.39 17.2C14.38 18.2 15.59 18.7 17 18.7C18.4 18.7 19.61 18.2 20.6 17.2C21.6 16.21 22.1 15 22.1 13.6L22.1 10.2C22.1 8.79 21.6 7.58 20.6 6.59C19.61 5.59 18.4 5.1 17 5.1C15.59 5.1 14.38 5.59 13.39 6.59C12.39 7.58 11.89 8.79 11.89 10.2ZM30.6 25.73C26.39 23.3 21.85 22.09 17 22.1C12.05 22.1 7.39 23.42 3.39 25.73L3.39 30.6L30.6 30.6L30.6 25.73Z" fill="#044382" fill-opacity="1.000000" fill-rule="nonzero"/>
	</g>
</svg>
